<svg version="1.1" id="Layer_1" xmlns="http://www.w3.org/2000/svg" xmlns:xlink="http://www.w3.org/1999/xlink" x="0px" y="0px"
	 width="100%" viewBox="0 0 2380 2380" enable-background="new 0 0 2380 2380" xml:space="preserve">
<path fill="#0F102E" opacity="1.000000" stroke="none" 
	d="
M1564.000000,2382.000000 
	C1042.666626,2382.000000 522.333313,2382.000000 2.000000,2382.000000 
	C2.000000,1588.666626 2.000000,795.333313 2.000000,2.000000 
	C795.333313,2.000000 1588.666626,2.000000 2382.000000,2.000000 
	C2382.000000,795.333313 2382.000000,1588.666626 2382.000000,2382.000000 
	C2109.666748,2382.000000 1837.333374,2382.000000 1564.000000,2382.000000 
M1350.703735,1506.712402 
	C1313.214844,1530.744629 1272.579468,1546.650269 1228.719971,1554.530640 
	C1190.742798,1561.354126 1152.545166,1562.069458 1114.177368,1559.764038 
	C1110.987915,1559.572266 1107.777100,1559.738647 1103.219971,1559.738647 
	C1116.246948,1585.134766 1131.740479,1607.173828 1152.760742,1625.159424 
	C1173.973633,1643.310059 1198.727295,1654.728027 1227.131592,1662.875244 
	C1223.137817,1665.483276 1221.152710,1667.215942 1218.848999,1668.213257 
	C1203.591553,1674.818237 1188.606079,1682.277344 1172.893677,1687.559326 
	C1136.631470,1699.749146 1098.974243,1704.548218 1060.860840,1706.102905 
	C1057.430054,1706.242798 1054.001831,1706.448853 1048.745483,1706.717651 
	C1063.571167,1725.144043 1078.236450,1740.415649 1095.348267,1753.315674 
	C1112.412109,1766.179443 1131.680054,1774.769775 1153.069336,1781.814453 
	C1149.911255,1784.054077 1148.369507,1785.296753 1146.691895,1786.315308 
	C1099.939941,1814.710327 1058.860840,1850.012695 1020.936462,1889.210938 
	C1017.140442,1893.134399 1015.628906,1897.158447 1015.759705,1902.516235 
	C1016.052551,1914.506226 1015.807922,1926.508301 1015.880127,1938.504883 
	C1015.894897,1940.961060 1016.338440,1943.414673 1016.639465,1946.420044 
	C1020.321228,1945.354370 1023.199341,1944.626465 1026.009277,1943.693237 
	C1124.081543,1911.121948 1224.453491,1889.448853 1327.364868,1879.508057 
	C1420.320190,1870.528809 1513.066162,1871.837280 1605.572632,1884.651489 
	C1718.945312,1900.356201 1827.307861,1932.909180 1930.577393,1982.325806 
	C1933.480103,1983.714600 1936.474731,1984.911133 1939.527100,1986.240967 
	C1949.798218,1940.804688 1950.727173,1854.414551 1905.287476,1786.330322 
	C1907.912598,1783.625244 1910.631836,1780.770264 1913.407593,1777.971436 
	C1932.253174,1758.967896 1948.985596,1738.295532 1962.849731,1715.361572 
	C2002.195312,1650.277100 2010.335938,1581.639648 1983.713989,1510.222534 
	C1964.101074,1457.608765 1929.996094,1417.800537 1875.201416,1398.916626 
	C1871.208740,1397.540527 1869.459839,1395.061890 1867.964233,1391.537231 
	C1856.013184,1363.371460 1835.068604,1344.322754 1807.316040,1332.357056 
	C1786.221069,1323.261841 1763.961060,1319.235229 1741.156982,1318.624512 
	C1689.936035,1317.252808 1640.340088,1326.328247 1592.117065,1343.210449 
	C1546.926025,1359.031250 1506.938354,1384.094360 1469.696899,1413.689087 
	C1438.921875,1438.145020 1408.620483,1463.197021 1376.418335,1487.784180 
	C1367.467407,1485.305542 1358.523193,1482.802368 1349.564209,1480.353271 
	C1326.793457,1474.128540 1303.969727,1468.091675 1281.254028,1461.671875 
	C1257.903564,1455.072632 1234.683960,1448.011108 1211.356079,1441.330444 
	C1182.594116,1433.093506 1153.800171,1424.965454 1124.957031,1417.019653 
	C1121.912354,1416.180786 1118.261841,1416.179810 1115.200317,1416.975098 
	C1087.187500,1424.252808 1059.242920,1431.792603 1031.278320,1439.256104 
	C1000.107666,1447.575073 968.934753,1455.885742 937.767029,1464.215820 
	C904.985352,1472.977173 872.210693,1481.764526 839.429321,1490.526855 
	C808.906128,1498.685547 778.385193,1506.852661 747.850647,1514.968628 
	C713.119812,1524.199829 678.378723,1533.392578 643.628479,1542.550537 
	C641.234680,1543.181519 638.728149,1543.384888 634.511841,1544.075806 
	C635.928772,1540.209961 636.433960,1537.712402 637.670288,1535.654053 
	C642.800903,1527.112671 648.136963,1518.694336 653.425842,1510.248413 
	C662.592896,1495.609619 671.688416,1480.924927 680.981384,1466.366333 
	C695.641479,1443.399414 710.563354,1420.598877 725.145691,1397.583008 
	C739.718140,1374.582764 753.939453,1351.360596 768.446106,1328.318359 
	C780.119751,1309.776001 792.019409,1291.376221 803.762512,1272.877563 
	C813.191101,1258.025024 822.480896,1243.084229 831.929321,1228.244385 
	C846.554260,1205.274170 861.334839,1182.402954 875.914551,1159.404175 
	C891.556030,1134.730591 906.998352,1109.930786 922.607788,1085.236816 
	C936.447144,1063.343262 950.473572,1041.567749 964.275879,1019.651062 
	C978.614624,996.882385 992.664551,973.931519 1007.053833,951.195129 
	C1029.974854,914.977966 1053.150024,878.921448 1076.073242,842.705688 
	C1098.979370,806.517090 1121.638184,770.172119 1144.536865,733.978821 
	C1163.362549,704.223083 1182.504395,674.667175 1201.281860,644.881287 
	C1223.934814,608.947754 1246.314209,572.841797 1268.884399,536.855774 
	C1281.419434,516.869568 1294.033081,496.931732 1306.760254,477.067566 
	C1310.448730,471.310883 1314.652710,465.884613 1319.481567,459.096436 
	C1321.377197,463.713470 1322.837646,466.679504 1323.834839,469.793854 
	C1331.224121,492.872192 1338.483521,515.992004 1345.856079,539.075745 
	C1357.474609,575.454224 1369.134766,611.819519 1380.806641,648.180908 
	C1386.998169,667.468628 1393.314331,686.716370 1399.461426,706.018066 
	C1406.718628,728.806091 1413.775146,751.658142 1421.066895,774.435059 
	C1426.839355,792.466431 1433.005493,810.372742 1438.693848,828.429993 
	C1448.671143,860.101807 1458.330322,891.873840 1468.285400,923.552795 
	C1476.547607,949.843933 1485.056641,976.057556 1493.432861,1002.312988 
	C1501.908569,1028.880859 1510.282471,1055.481567 1518.833862,1082.025024 
	C1529.118652,1113.949341 1539.615967,1145.805298 1549.884155,1177.734863 
	C1557.103271,1200.182617 1564.131348,1222.692017 1571.170654,1245.197144 
	C1575.033936,1257.548340 1578.694580,1269.962891 1582.546387,1282.317627 
	C1584.163208,1287.503418 1586.038818,1292.608643 1588.500000,1299.806641 
	C1590.685913,1296.076050 1592.108154,1294.391724 1592.705811,1292.453125 
	C1593.580811,1289.614624 1593.518555,1286.478394 1594.454956,1283.668823 
	C1602.853516,1258.467163 1611.319824,1233.287720 1619.894165,1208.145264 
	C1627.185059,1186.766357 1634.641846,1165.443970 1642.032837,1144.099121 
	C1643.727783,1139.203857 1643.803833,1134.582275 1641.546753,1129.615723 
	C1632.902344,1110.594482 1624.566284,1091.432739 1616.161499,1072.302979 
	C1599.213379,1033.728271 1582.336182,995.122437 1565.350952,956.564148 
	C1554.388062,931.676697 1543.224731,906.877563 1532.261963,881.990051 
	C1520.353882,854.956909 1508.567749,827.870056 1496.739624,800.801697 
	C1484.652222,773.140076 1472.618652,745.454834 1460.480347,717.815552 
	C1454.872437,705.046509 1448.973633,692.405212 1443.379028,679.630493 
	C1432.735229,655.326294 1422.262695,630.947021 1411.625366,606.639893 
	C1405.503296,592.650146 1399.090454,578.787354 1392.999512,564.784363 
	C1382.680176,541.060120 1372.558838,517.249878 1362.267822,493.513306 
	C1350.913940,467.325256 1339.506226,441.160309 1328.019165,415.030518 
	C1325.544189,409.400879 1322.629395,403.964661 1319.340576,397.264557 
	C1006.025940,801.845337 698.223083,1208.549927 388.321960,1615.764282 
	C392.988098,1616.152710 395.555237,1616.552002 398.122559,1616.553101 
	C458.447418,1616.580811 518.772339,1616.604126 579.096924,1616.475464 
	C583.343567,1616.466309 587.809937,1615.914673 591.795837,1614.528198 
	C612.511719,1607.321167 633.050659,1599.606689 653.752136,1592.357300 
	C693.592102,1578.405762 733.536011,1564.751221 773.370117,1550.783203 
	C820.431641,1534.281006 867.424500,1517.583130 914.443115,1500.958862 
	C938.574768,1492.426758 962.712708,1483.911865 986.821350,1475.315186 
	C1028.800171,1460.346313 1070.806030,1445.450195 1112.667603,1430.159790 
	C1118.119873,1428.168335 1122.641602,1428.325806 1127.938843,1430.073608 
	C1151.619019,1437.886841 1175.428711,1445.306763 1199.158813,1452.970215 
	C1225.104858,1461.348999 1251.029053,1469.795532 1276.936035,1478.294189 
	C1300.956177,1486.173950 1324.956177,1494.117065 1348.901978,1502.218262 
	C1350.283813,1502.685791 1351.098511,1504.829712 1350.703735,1506.712402 
M990.436035,1297.050415 
	C991.227905,1298.078003 991.908081,1299.880371 992.828979,1300.013184 
	C1001.935120,1301.326538 1011.028198,1301.128662 1020.839600,1300.113037 
	C1020.013367,1296.977905 1019.809937,1294.977417 1018.989136,1293.274414 
	C1004.738037,1263.706421 990.422729,1234.169189 976.087463,1204.641724 
	C974.064087,1200.473877 971.122375,1197.803955 965.975403,1198.064087 
	C960.325928,1198.349609 954.635620,1198.395264 948.991333,1198.064453 
	C942.537720,1197.686279 938.796509,1199.870850 936.056885,1206.241089 
	C925.709351,1230.301636 914.629150,1254.046387 903.937256,1277.960327 
	C900.871826,1284.816772 898.191284,1291.845215 894.715942,1300.298950 
	C899.960266,1300.501953 903.846313,1300.340576 907.639832,1300.857666 
	C919.155029,1302.427490 927.778015,1300.047729 930.012390,1286.715820 
	C930.834595,1281.810303 934.588074,1279.897949 939.665527,1280.042358 
	C947.987976,1280.279175 956.322021,1280.112549 964.651184,1280.110962 
	C982.162231,1280.107788 982.162231,1280.106445 990.436035,1297.050415 
M1424.543457,1203.365601 
	C1410.499878,1235.101196 1396.456299,1266.836670 1382.523804,1298.321167 
	C1383.732544,1299.352661 1384.203125,1300.106689 1384.722656,1300.142090 
	C1389.019897,1300.434692 1393.325928,1300.762329 1397.629517,1300.764893 
	C1414.161377,1300.775024 1411.665649,1302.004883 1417.209351,1286.982300 
	C1419.250000,1281.452759 1422.304565,1279.901855 1427.577393,1280.047729 
	C1435.234375,1280.259399 1442.993042,1280.859375 1450.543701,1279.941040 
	C1463.594116,1278.353516 1473.123047,1281.424927 1477.192627,1295.232300 
	C1477.817993,1297.353882 1480.519043,1300.235718 1482.427368,1300.368896 
	C1490.600464,1300.938965 1498.836182,1300.611938 1507.950073,1300.611938 
	C1507.188965,1297.198608 1507.104858,1294.840332 1506.162476,1292.898804 
	C1495.299927,1270.520996 1484.284668,1248.217407 1473.362549,1225.868408 
	C1470.015503,1219.019653 1466.886353,1212.064453 1463.549683,1205.210449 
	C1461.193726,1200.370605 1457.872925,1197.399536 1451.797241,1198.011475 
	C1446.190308,1198.576172 1440.479126,1198.240967 1434.819092,1198.098511 
	C1430.948975,1198.001221 1427.517456,1198.618774 1424.543457,1203.365601 
M1169.328735,1284.645874 
	C1169.555786,1289.800293 1169.782959,1294.954834 1170.041016,1300.810303 
	C1180.092896,1300.239136 1188.958130,1302.235840 1198.013550,1299.175293 
	C1198.013550,1289.399414 1197.997681,1280.435181 1198.017578,1271.470947 
	C1198.044067,1259.610107 1198.086182,1259.742798 1209.404907,1259.437012 
	C1217.036621,1259.230835 1224.948364,1259.635986 1232.217651,1257.761841 
	C1247.982300,1253.697021 1256.746582,1243.237915 1256.461670,1227.878052 
	C1256.195801,1213.549072 1246.806763,1202.468994 1231.516846,1199.985596 
	C1222.070801,1198.451538 1212.342285,1198.457520 1202.729248,1198.203369 
	C1192.165039,1197.924194 1181.587646,1198.139648 1171.399170,1198.139648 
	C1170.472046,1200.049683 1169.679810,1200.924194 1169.674561,1201.803345 
	C1169.511963,1228.781494 1169.426758,1255.760376 1169.328735,1284.645874 
M1359.094116,1217.469238 
	C1366.722534,1215.279053 1367.398071,1214.090698 1366.492554,1204.455200 
	C1365.987183,1199.078003 1364.904907,1198.139648 1357.519897,1198.108154 
	C1336.875610,1198.020264 1316.230713,1198.062500 1295.586304,1198.126831 
	C1293.662964,1198.132935 1291.741211,1198.659912 1290.005005,1198.917480 
	C1287.810791,1206.570068 1287.627930,1291.006836 1289.866821,1300.298462 
	C1298.404053,1301.034790 1307.126953,1301.541138 1317.063721,1299.703369 
	C1317.063721,1285.893311 1317.063721,1272.759155 1317.063721,1258.184937 
	C1334.044678,1258.184937 1349.817383,1258.184937 1365.670166,1258.184937 
	C1365.670166,1251.232666 1365.670166,1245.774902 1365.670166,1238.943115 
	C1349.458984,1238.943115 1333.947510,1238.943115 1318.512085,1238.943115 
	C1316.171753,1231.202271 1315.900513,1224.867920 1318.636963,1217.467651 
	C1331.580811,1217.467651 1344.512329,1217.467651 1359.094116,1217.469238 
M1051.344360,1254.998901 
	C1051.344360,1269.881348 1051.344360,1284.763916 1051.344360,1300.331421 
	C1055.988281,1300.539062 1059.224609,1300.802979 1062.461426,1300.809082 
	C1082.776855,1300.847290 1103.092407,1300.833984 1123.407837,1300.822021 
	C1126.403442,1300.820190 1129.428833,1300.967041 1132.382202,1300.589722 
	C1133.853516,1300.401733 1136.321411,1299.290527 1136.404907,1298.412964 
	C1136.868164,1293.544922 1137.483276,1288.444824 1136.394531,1283.812500 
	C1136.027222,1282.249390 1130.840698,1281.069824 1127.829224,1281.005737 
	C1114.180908,1280.714844 1100.521484,1281.002808 1086.868774,1280.840088 
	C1080.082642,1280.759277 1079.481567,1279.952515 1079.190796,1273.400391 
	C1079.117065,1271.738770 1079.194092,1270.070435 1079.197144,1268.405273 
	C1079.235840,1247.757446 1079.294922,1227.109619 1079.300171,1206.461792 
	C1079.301880,1199.427856 1078.312988,1198.323853 1071.404419,1198.135864 
	C1065.183350,1197.966553 1058.954102,1198.100220 1051.344604,1198.100220 
	C1051.344604,1217.236572 1051.344604,1235.117676 1051.344360,1254.998901 
z"/>
<path fill="#F6F7F7" opacity="1.000000" stroke="none" 
	d="
M1378.109253,1487.984863 
	C1408.620483,1463.197021 1438.921875,1438.145020 1469.696899,1413.689087 
	C1506.938354,1384.094360 1546.926025,1359.031250 1592.117065,1343.210449 
	C1640.340088,1326.328247 1689.936035,1317.252808 1741.156982,1318.624512 
	C1763.961060,1319.235229 1786.221069,1323.261841 1807.316040,1332.357056 
	C1835.068604,1344.322754 1856.013184,1363.371460 1867.964233,1391.537231 
	C1869.459839,1395.061890 1871.208740,1397.540527 1875.201416,1398.916626 
	C1929.996094,1417.800537 1964.101074,1457.608765 1983.713989,1510.222534 
	C2010.335938,1581.639648 2002.195312,1650.277100 1962.849731,1715.361572 
	C1948.985596,1738.295532 1932.253174,1758.967896 1913.407593,1777.971436 
	C1910.631836,1780.770264 1907.912598,1783.625244 1905.287476,1786.330322 
	C1950.727173,1854.414551 1949.798218,1940.804688 1939.527100,1986.240967 
	C1936.474731,1984.911133 1933.480103,1983.714600 1930.577393,1982.325806 
	C1827.307861,1932.909180 1718.945312,1900.356201 1605.572632,1884.651489 
	C1513.066162,1871.837280 1420.320190,1870.528809 1327.364868,1879.508057 
	C1224.453491,1889.448853 1124.081543,1911.121948 1026.009277,1943.693237 
	C1023.199341,1944.626465 1020.321228,1945.354370 1016.639465,1946.420044 
	C1016.338440,1943.414673 1015.894897,1940.961060 1015.880127,1938.504883 
	C1015.807922,1926.508301 1016.052551,1914.506226 1015.759705,1902.516235 
	C1015.628906,1897.158447 1017.140442,1893.134399 1020.936462,1889.210938 
	C1058.860840,1850.012695 1099.939941,1814.710327 1146.691895,1786.315308 
	C1148.369507,1785.296753 1149.911255,1784.054077 1153.069336,1781.814453 
	C1131.680054,1774.769775 1112.412109,1766.179443 1095.348267,1753.315674 
	C1078.236450,1740.415649 1063.571167,1725.144043 1048.745483,1706.717651 
	C1054.001831,1706.448853 1057.430054,1706.242798 1060.860840,1706.102905 
	C1098.974243,1704.548218 1136.631470,1699.749146 1172.893677,1687.559326 
	C1188.606079,1682.277344 1203.591553,1674.818237 1218.848999,1668.213257 
	C1221.152710,1667.215942 1223.137817,1665.483276 1227.131592,1662.875244 
	C1198.727295,1654.728027 1173.973633,1643.310059 1152.760742,1625.159424 
	C1131.740479,1607.173828 1116.246948,1585.134766 1103.219971,1559.738647 
	C1107.777100,1559.738647 1110.987915,1559.572266 1114.177368,1559.764038 
	C1152.545166,1562.069458 1190.742798,1561.354126 1228.719971,1554.530640 
	C1272.579468,1546.650269 1313.214844,1530.744629 1352.038330,1506.420410 
	C1361.618408,1500.080566 1369.863770,1494.032715 1378.109253,1487.984863 
M1976.338135,1602.726440 
	C1978.161987,1555.248535 1967.005737,1511.453979 1938.405151,1472.986694 
	C1918.424438,1446.113037 1892.445190,1427.895752 1859.077637,1421.263672 
	C1856.878906,1420.826904 1854.753174,1420.023560 1852.949585,1419.494995 
	C1845.974121,1388.901245 1830.488892,1370.039062 1802.254028,1357.428223 
	C1786.238037,1350.274536 1769.305542,1346.764526 1751.888428,1345.804077 
	C1700.874390,1342.991455 1651.651489,1352.213135 1603.812988,1369.201050 
	C1560.286255,1384.657959 1522.178589,1409.658203 1486.365112,1438.335693 
	C1456.458252,1462.283569 1427.152344,1486.998779 1396.862183,1510.446533 
	C1358.026245,1540.509766 1315.187500,1563.052979 1267.318848,1575.346313 
	C1235.168945,1583.602783 1202.444580,1586.910522 1169.331665,1587.161255 
	C1166.306763,1587.184082 1162.831421,1585.917114 1159.572021,1589.131836 
	C1163.072510,1592.843262 1166.058105,1596.366455 1169.409302,1599.498169 
	C1181.726074,1611.008423 1196.001465,1619.478149 1211.499146,1625.934692 
	C1236.103027,1636.184692 1261.887695,1640.765625 1288.405151,1641.781738 
	C1291.869385,1641.914551 1295.325439,1642.257568 1300.489990,1642.624268 
	C1289.471680,1654.917114 1278.223145,1664.115479 1266.383423,1672.629517 
	C1221.346191,1705.016602 1170.611084,1722.347778 1113.193848,1728.637329 
	C1117.771606,1732.125732 1120.039307,1734.480103 1122.796875,1735.843506 
	C1132.920898,1740.849121 1142.904907,1746.369019 1153.490479,1750.165527 
	C1183.630127,1760.974976 1215.049805,1764.257202 1246.896362,1764.258911 
	C1250.961792,1764.259155 1255.027344,1764.258911 1259.092773,1764.258911 
	C1218.848755,1783.620117 1180.259155,1804.469238 1143.535767,1828.711182 
	C1099.103760,1858.041626 1047.996582,1900.425537 1042.861938,1911.582642 
	C1339.343628,1814.431641 1632.661377,1815.687012 1922.514282,1943.960693 
	C1926.533813,1914.321167 1921.725220,1886.073120 1912.907959,1858.268555 
	C1904.112793,1830.534058 1890.470581,1805.100098 1874.558350,1780.545898 
	C1877.272583,1777.980469 1879.375122,1775.903687 1881.571289,1773.930908 
	C1903.731689,1754.022339 1923.682129,1732.165405 1939.900757,1707.096313 
	C1960.119751,1675.843262 1973.685425,1642.179810 1976.338135,1602.726440 
z"/>
<path fill="#E4E4E0" opacity="1.000000" stroke="none" 
	d="
M1377.263794,1487.884521 
	C1369.863770,1494.032715 1361.618408,1500.080566 1352.775146,1506.161011 
	C1351.098511,1504.829712 1350.283813,1502.685791 1348.901978,1502.218262 
	C1324.956177,1494.117065 1300.956177,1486.173950 1276.936035,1478.294189 
	C1251.029053,1469.795532 1225.104858,1461.348999 1199.158813,1452.970215 
	C1175.428711,1445.306763 1151.619019,1437.886841 1127.938843,1430.073608 
	C1122.641602,1428.325806 1118.119873,1428.168335 1112.667603,1430.159790 
	C1070.806030,1445.450195 1028.800171,1460.346313 986.821350,1475.315186 
	C962.712708,1483.911865 938.574768,1492.426758 914.443115,1500.958862 
	C867.424500,1517.583130 820.431641,1534.281006 773.370117,1550.783203 
	C733.536011,1564.751221 693.592102,1578.405762 653.752136,1592.357300 
	C633.050659,1599.606689 612.511719,1607.321167 591.795837,1614.528198 
	C587.809937,1615.914673 583.343567,1616.466309 579.096924,1616.475464 
	C518.772339,1616.604126 458.447418,1616.580811 398.122559,1616.553101 
	C395.555237,1616.552002 392.988098,1616.152710 388.321960,1615.764282 
	C698.223083,1208.549927 1006.025940,801.845337 1319.340576,397.264557 
	C1322.629395,403.964661 1325.544189,409.400879 1328.019165,415.030518 
	C1339.506226,441.160309 1350.913940,467.325256 1362.267822,493.513306 
	C1372.558838,517.249878 1382.680176,541.060120 1392.999512,564.784363 
	C1399.090454,578.787354 1405.503296,592.650146 1411.625366,606.639893 
	C1422.262695,630.947021 1432.735229,655.326294 1443.379028,679.630493 
	C1448.973633,692.405212 1454.872437,705.046509 1460.480347,717.815552 
	C1472.618652,745.454834 1484.652222,773.140076 1496.739624,800.801697 
	C1508.567749,827.870056 1520.353882,854.956909 1532.261963,881.990051 
	C1543.224731,906.877563 1554.388062,931.676697 1565.350952,956.564148 
	C1582.336182,995.122437 1599.213379,1033.728271 1616.161499,1072.302979 
	C1624.566284,1091.432739 1632.902344,1110.594482 1641.546753,1129.615723 
	C1643.803833,1134.582275 1643.727783,1139.203857 1642.032837,1144.099121 
	C1634.641846,1165.443970 1627.185059,1186.766357 1619.894165,1208.145264 
	C1611.319824,1233.287720 1602.853516,1258.467163 1594.454956,1283.668823 
	C1593.518555,1286.478394 1593.580811,1289.614624 1592.705811,1292.453125 
	C1592.108154,1294.391724 1590.685913,1296.076050 1588.500000,1299.806641 
	C1586.038818,1292.608643 1584.163208,1287.503418 1582.546387,1282.317627 
	C1578.694580,1269.962891 1575.033936,1257.548340 1571.170654,1245.197144 
	C1564.131348,1222.692017 1557.103271,1200.182617 1549.884155,1177.734863 
	C1539.615967,1145.805298 1529.118652,1113.949341 1518.833862,1082.025024 
	C1510.282471,1055.481567 1501.908569,1028.880859 1493.432861,1002.312988 
	C1485.056641,976.057556 1476.547607,949.843933 1468.285400,923.552795 
	C1458.330322,891.873840 1448.671143,860.101807 1438.693848,828.429993 
	C1433.005493,810.372742 1426.839355,792.466431 1421.066895,774.435059 
	C1413.775146,751.658142 1406.718628,728.806091 1399.461426,706.018066 
	C1393.314331,686.716370 1386.998169,667.468628 1380.806641,648.180908 
	C1369.134766,611.819519 1357.474609,575.454224 1345.856079,539.075745 
	C1338.483521,515.992004 1331.224121,492.872192 1323.834839,469.793854 
	C1322.837646,466.679504 1321.377197,463.713470 1319.481567,459.096436 
	C1314.652710,465.884613 1310.448730,471.310883 1306.760254,477.067566 
	C1294.033081,496.931732 1281.419434,516.869568 1268.884399,536.855774 
	C1246.314209,572.841797 1223.934814,608.947754 1201.281860,644.881287 
	C1182.504395,674.667175 1163.362549,704.223083 1144.536865,733.978821 
	C1121.638184,770.172119 1098.979370,806.517090 1076.073242,842.705688 
	C1053.150024,878.921448 1029.974854,914.977966 1007.053833,951.195129 
	C992.664551,973.931519 978.614624,996.882385 964.275879,1019.651062 
	C950.473572,1041.567749 936.447144,1063.343262 922.607788,1085.236816 
	C906.998352,1109.930786 891.556030,1134.730591 875.914551,1159.404175 
	C861.334839,1182.402954 846.554260,1205.274170 831.929321,1228.244385 
	C822.480896,1243.084229 813.191101,1258.025024 803.762512,1272.877563 
	C792.019409,1291.376221 780.119751,1309.776001 768.446106,1328.318359 
	C753.939453,1351.360596 739.718140,1374.582764 725.145691,1397.583008 
	C710.563354,1420.598877 695.641479,1443.399414 680.981384,1466.366333 
	C671.688416,1480.924927 662.592896,1495.609619 653.425842,1510.248413 
	C648.136963,1518.694336 642.800903,1527.112671 637.670288,1535.654053 
	C636.433960,1537.712402 635.928772,1540.209961 634.511841,1544.075806 
	C638.728149,1543.384888 641.234680,1543.181519 643.628479,1542.550537 
	C678.378723,1533.392578 713.119812,1524.199829 747.850647,1514.968628 
	C778.385193,1506.852661 808.906128,1498.685547 839.429321,1490.526855 
	C872.210693,1481.764526 904.985352,1472.977173 937.767029,1464.215820 
	C968.934753,1455.885742 1000.107666,1447.575073 1031.278320,1439.256104 
	C1059.242920,1431.792603 1087.187500,1424.252808 1115.200317,1416.975098 
	C1118.261841,1416.179810 1121.912354,1416.180786 1124.957031,1417.019653 
	C1153.800171,1424.965454 1182.594116,1433.093506 1211.356079,1441.330444 
	C1234.683960,1448.011108 1257.903564,1455.072632 1281.254028,1461.671875 
	C1303.969727,1468.091675 1326.793457,1474.128540 1349.564209,1480.353271 
	C1358.523193,1482.802368 1367.467407,1485.305542 1377.263794,1487.884521 
M444.285034,1547.370361 
	C436.468262,1557.651123 428.308655,1567.692993 420.930969,1578.279785 
	C413.514313,1588.922607 403.639771,1597.980225 397.629333,1612.029297 
	C402.976501,1612.029297 406.525513,1612.029297 410.074554,1612.029297 
	C459.067719,1612.029297 508.060852,1612.033447 557.054016,1612.025513 
	C567.052368,1612.023926 577.051025,1612.012573 587.049011,1611.937378 
	C594.546631,1611.880981 599.531372,1608.395630 602.130005,1601.200684 
	C603.697754,1596.859741 605.182251,1592.171997 607.976562,1588.649414 
	C616.997742,1577.276978 625.650452,1565.760620 631.528931,1551.835205 
	C626.240784,1546.925781 627.432861,1542.336182 631.669556,1537.107300 
	C636.041077,1531.711914 639.470154,1525.542358 643.207520,1519.645508 
	C660.285522,1492.700317 677.253601,1465.685059 694.406677,1438.787720 
	C706.157715,1420.361206 718.260315,1402.158813 730.002502,1383.726685 
	C744.109436,1361.582642 757.934998,1339.259521 772.004883,1317.091675 
	C784.268433,1297.769897 796.798035,1278.616821 809.033203,1259.277466 
	C821.084717,1240.228271 832.860840,1221.005005 844.855408,1201.919434 
	C857.923035,1181.126465 871.126343,1160.418701 884.223450,1139.644165 
	C890.937378,1128.994629 897.504761,1118.252808 904.216919,1107.602173 
	C915.369690,1089.905396 926.638062,1072.281494 937.759460,1054.565308 
	C947.117676,1039.657715 956.171021,1024.556763 965.662231,1009.735352 
	C975.311707,994.666809 985.526489,979.959534 995.139648,964.868591 
	C1006.743713,946.652283 1017.863647,928.128113 1029.403442,909.870239 
	C1038.436890,895.578003 1047.954712,881.591492 1056.956787,867.280090 
	C1066.096924,852.749084 1074.791748,837.938721 1083.830078,823.342712 
	C1089.594971,814.032837 1095.631592,804.891174 1101.542847,795.671875 
	C1113.023560,777.766174 1124.480347,759.844971 1135.988403,741.956787 
	C1144.218750,729.163696 1152.666504,716.507996 1160.742310,703.618774 
	C1168.994751,690.447815 1176.736328,676.956299 1185.015991,663.803040 
	C1197.764771,643.549927 1210.885132,623.530762 1223.654785,603.290527 
	C1235.316650,584.806030 1246.654907,566.117676 1258.262085,547.598328 
	C1267.623535,532.662354 1277.227905,517.878723 1286.624146,502.964355 
	C1295.458496,488.941864 1304.063477,474.773621 1313.031860,460.838440 
	C1314.316772,458.841949 1317.377686,456.318390 1319.084839,456.664215 
	C1321.504395,457.154327 1323.904907,459.771942 1325.413818,462.070801 
	C1326.586060,463.856720 1326.131592,466.625275 1326.829590,468.820557 
	C1334.018799,491.432343 1341.361328,513.995544 1348.519897,536.616943 
	C1352.092285,547.905579 1355.081177,559.384644 1358.849976,570.604248 
	C1365.583008,590.648499 1373.026611,610.457397 1379.578247,630.558533 
	C1386.221924,650.942139 1392.154297,671.557861 1398.382812,692.076660 
	C1401.938477,703.789978 1405.265869,715.576721 1409.044312,727.217346 
	C1415.968140,748.547974 1423.363525,769.726990 1430.155029,791.098755 
	C1435.361694,807.483521 1439.762085,824.123108 1444.854492,840.545898 
	C1449.360596,855.077637 1454.322876,869.467957 1459.091064,883.918335 
	C1464.673340,900.836487 1470.216187,917.767883 1475.871826,934.661499 
	C1478.377075,942.144775 1481.423218,949.457886 1483.683228,957.010010 
	C1487.655762,970.284729 1490.890747,983.784546 1495.023315,997.006104 
	C1500.428589,1014.299561 1506.446289,1031.401001 1512.124390,1048.610107 
	C1516.483154,1061.820557 1520.818359,1075.040039 1524.987183,1088.311157 
	C1528.246948,1098.688843 1531.104736,1109.192871 1534.377197,1119.566284 
	C1538.551025,1132.796143 1542.927124,1145.962646 1547.283325,1159.134155 
	C1550.592651,1169.140625 1554.221191,1179.046509 1557.325073,1189.115112 
	C1562.182983,1204.873779 1566.460571,1220.814087 1571.457397,1236.526733 
	C1577.096802,1254.260132 1583.259766,1271.827026 1589.265259,1289.674927 
	C1591.460571,1283.291870 1593.534912,1277.071533 1595.742432,1270.898926 
	C1597.635620,1265.605469 1599.938232,1260.446655 1601.611328,1255.088379 
	C1606.831909,1238.369019 1611.453247,1221.453491 1617.031616,1204.857544 
	C1623.435547,1185.805908 1630.887329,1167.107300 1637.329956,1148.067749 
	C1640.135620,1139.776489 1640.534058,1131.188721 1634.869995,1123.372070 
	C1633.132080,1120.973511 1631.878174,1118.153564 1630.778198,1115.377808 
	C1628.108765,1108.640503 1625.908936,1101.707886 1623.032227,1095.065186 
	C1621.200928,1090.836670 1618.074707,1087.166870 1616.263184,1082.932495 
	C1610.549683,1069.577881 1605.434814,1055.964722 1599.615356,1042.658447 
	C1592.861938,1027.216064 1585.385620,1012.090027 1578.623291,996.651367 
	C1568.548096,973.649475 1558.903931,950.459229 1548.923096,927.415405 
	C1541.684692,910.703247 1534.102173,894.140259 1526.846069,877.435608 
	C1517.870728,856.773010 1509.208130,835.973877 1500.167236,815.340393 
	C1488.597046,788.934692 1476.761108,762.645508 1465.082642,736.287109 
	C1453.279419,709.647339 1441.410156,683.035950 1429.792114,656.315491 
	C1420.019653,633.840088 1410.705566,611.165527 1400.931641,588.690857 
	C1391.964111,568.070435 1382.566040,547.637634 1373.519897,527.050842 
	C1365.810669,509.506592 1358.429688,491.818298 1350.725708,474.271698 
	C1342.219360,454.897339 1333.567261,435.586151 1324.837769,416.311279 
	C1323.278687,412.868927 1321.034058,409.737122 1317.503662,403.740173 
	C1316.283325,406.746979 1316.030029,408.211609 1315.219971,409.236115 
	C1307.798706,418.623413 1300.199707,427.870544 1292.808228,437.280853 
	C1278.449097,455.562073 1264.132324,473.877289 1249.908569,492.263947 
	C1238.122559,507.499420 1226.520020,522.876831 1214.790771,538.156372 
	C1202.653687,553.967041 1190.404907,569.692261 1178.312134,585.536743 
	C1169.073975,597.641235 1160.106323,609.952820 1150.827637,622.025757 
	C1141.928833,633.604492 1132.705933,644.933594 1123.767700,656.482544 
	C1111.981689,671.711304 1100.385864,687.087036 1088.612671,702.325867 
	C1077.876221,716.222900 1066.875610,729.917480 1056.243164,743.892944 
	C1045.788330,757.635132 1035.772949,771.711426 1025.340942,785.471375 
	C1013.102783,801.613586 1000.588501,817.546143 988.258240,833.618896 
	C976.327759,849.170654 964.531738,864.825806 952.578064,880.359619 
	C941.667725,894.537598 930.546814,908.553772 919.660400,922.749817 
	C905.101807,941.734436 890.702759,960.841248 876.192322,979.862915 
	C864.306335,995.444031 852.254211,1010.899414 840.470398,1026.557129 
	C831.328552,1038.703979 822.635071,1051.189087 813.467712,1063.316040 
	C805.262451,1074.170410 796.550415,1084.640747 788.293274,1095.457031 
	C768.542664,1121.328979 748.888794,1147.275269 729.275085,1173.251343 
	C719.098694,1186.728882 709.301147,1200.496704 698.960022,1213.844849 
	C681.083252,1236.920044 662.701660,1259.605713 644.925171,1282.756714 
	C622.271790,1312.258911 600.060303,1342.099854 577.561096,1371.720825 
	C562.325195,1391.779419 546.817871,1411.632202 531.621399,1431.720459 
	C514.993958,1453.700195 498.652405,1475.896118 482.058105,1497.901123 
	C469.852783,1514.086060 457.440979,1530.115479 444.285034,1547.370361 
M634.000061,1542.999878 
	C634.400024,1543.266602 634.800049,1543.533325 635.200012,1543.800049 
	C635.133301,1543.200073 635.066650,1542.599976 634.000061,1542.999878 
z"/>
<path fill="#EAEAEC" opacity="1.000000" stroke="none" 
	d="
M990.158875,1296.335938 
	C982.162231,1280.106445 982.162231,1280.107788 964.651184,1280.110962 
	C956.322021,1280.112549 947.987976,1280.279175 939.665527,1280.042358 
	C934.588074,1279.897949 930.834595,1281.810303 930.012390,1286.715820 
	C927.778015,1300.047729 919.155029,1302.427490 907.639832,1300.857666 
	C903.846313,1300.340576 899.960266,1300.501953 894.715942,1300.298950 
	C898.191284,1291.845215 900.871826,1284.816772 903.937256,1277.960327 
	C914.629150,1254.046387 925.709351,1230.301636 936.056885,1206.241089 
	C938.796509,1199.870850 942.537720,1197.686279 948.991333,1198.064453 
	C954.635620,1198.395264 960.325928,1198.349609 965.975403,1198.064087 
	C971.122375,1197.803955 974.064087,1200.473877 976.087463,1204.641724 
	C990.422729,1234.169189 1004.738037,1263.706421 1018.989136,1293.274414 
	C1019.809937,1294.977417 1020.013367,1296.977905 1020.839600,1300.113037 
	C1011.028198,1301.128662 1001.935120,1301.326538 992.828979,1300.013184 
	C991.908081,1299.880371 991.227905,1298.078003 990.158875,1296.335938 
M944.482056,1262.419067 
	C953.873718,1262.088501 963.366272,1263.220459 974.114563,1261.518555 
	C968.189636,1248.610840 962.929810,1237.152100 957.650208,1225.650391 
	C955.768250,1226.608154 954.874146,1226.755981 954.671082,1227.211792 
	C950.093689,1237.484497 945.513428,1247.758301 941.207031,1258.145386 
	C940.809692,1259.103882 942.247803,1260.823242 944.482056,1262.419067 
z"/>
<path fill="#EBEBEC" opacity="1.000000" stroke="none" 
	d="
M1424.847900,1202.703247 
	C1427.517456,1198.618774 1430.948975,1198.001221 1434.819092,1198.098511 
	C1440.479126,1198.240967 1446.190308,1198.576172 1451.797241,1198.011475 
	C1457.872925,1197.399536 1461.193726,1200.370605 1463.549683,1205.210449 
	C1466.886353,1212.064453 1470.015503,1219.019653 1473.362549,1225.868408 
	C1484.284668,1248.217407 1495.299927,1270.520996 1506.162476,1292.898804 
	C1507.104858,1294.840332 1507.188965,1297.198608 1507.950073,1300.611938 
	C1498.836182,1300.611938 1490.600464,1300.938965 1482.427368,1300.368896 
	C1480.519043,1300.235718 1477.817993,1297.353882 1477.192627,1295.232300 
	C1473.123047,1281.424927 1463.594116,1278.353516 1450.543701,1279.941040 
	C1442.993042,1280.859375 1435.234375,1280.259399 1427.577393,1280.047729 
	C1422.304565,1279.901855 1419.250000,1281.452759 1417.209351,1286.982300 
	C1411.665649,1302.004883 1414.161377,1300.775024 1397.629517,1300.764893 
	C1393.325928,1300.762329 1389.019897,1300.434692 1384.722656,1300.142090 
	C1384.203125,1300.106689 1383.732544,1299.352661 1382.523804,1298.321167 
	C1396.456299,1266.836670 1410.499878,1235.101196 1424.847900,1202.703247 
M1429.244019,1261.136230 
	C1439.528809,1263.525024 1449.731934,1262.608032 1461.308228,1261.629272 
	C1455.062134,1248.781738 1451.672119,1236.485107 1443.113037,1224.469604 
	C1437.882690,1237.203369 1433.282471,1248.403442 1429.244019,1261.136230 
z"/>
<path fill="#EAEAEC" opacity="1.000000" stroke="none" 
	d="
M1169.329102,1283.692383 
	C1169.426758,1255.760376 1169.511963,1228.781494 1169.674561,1201.803345 
	C1169.679810,1200.924194 1170.472046,1200.049683 1171.399170,1198.139648 
	C1181.587646,1198.139648 1192.165039,1197.924194 1202.729248,1198.203369 
	C1212.342285,1198.457520 1222.070801,1198.451538 1231.516846,1199.985596 
	C1246.806763,1202.468994 1256.195801,1213.549072 1256.461670,1227.878052 
	C1256.746582,1243.237915 1247.982300,1253.697021 1232.217651,1257.761841 
	C1224.948364,1259.635986 1217.036621,1259.230835 1209.404907,1259.437012 
	C1198.086182,1259.742798 1198.044067,1259.610107 1198.017578,1271.470947 
	C1197.997681,1280.435181 1198.013550,1289.399414 1198.013550,1299.175293 
	C1188.958130,1302.235840 1180.092896,1300.239136 1170.041016,1300.810303 
	C1169.782959,1294.954834 1169.555786,1289.800293 1169.329102,1283.692383 
M1223.803711,1237.118774 
	C1230.854004,1228.715698 1229.161011,1221.039917 1219.200195,1218.452393 
	C1214.140015,1217.137939 1208.681763,1216.861694 1203.432495,1217.028442 
	C1201.506714,1217.089600 1198.121094,1219.718628 1198.057129,1221.284668 
	C1197.808960,1227.362427 1195.947144,1233.786743 1200.336670,1240.881104 
	C1207.463623,1239.924561 1214.910034,1238.925049 1223.803711,1237.118774 
z"/>
<path fill="#E6E7E9" opacity="1.000000" stroke="none" 
	d="
M1358.269043,1217.468506 
	C1344.512329,1217.467651 1331.580811,1217.467651 1318.636963,1217.467651 
	C1315.900513,1224.867920 1316.171753,1231.202271 1318.512085,1238.943115 
	C1333.947510,1238.943115 1349.458984,1238.943115 1365.670166,1238.943115 
	C1365.670166,1245.774902 1365.670166,1251.232666 1365.670166,1258.184937 
	C1349.817383,1258.184937 1334.044678,1258.184937 1317.063721,1258.184937 
	C1317.063721,1272.759155 1317.063721,1285.893311 1317.063721,1299.703369 
	C1307.126953,1301.541138 1298.404053,1301.034790 1289.866821,1300.298462 
	C1287.627930,1291.006836 1287.810791,1206.570068 1290.005005,1198.917480 
	C1291.741211,1198.659912 1293.662964,1198.132935 1295.586304,1198.126831 
	C1316.230713,1198.062500 1336.875610,1198.020264 1357.519897,1198.108154 
	C1364.904907,1198.139648 1365.987183,1199.078003 1366.492554,1204.455200 
	C1367.398071,1214.090698 1366.722534,1215.279053 1358.269043,1217.468506 
z"/>
<path fill="#E8E8EA" opacity="1.000000" stroke="none" 
	d="
M1051.344482,1253.998901 
	C1051.344604,1235.117676 1051.344604,1217.236572 1051.344604,1198.100220 
	C1058.954102,1198.100220 1065.183350,1197.966553 1071.404419,1198.135864 
	C1078.312988,1198.323853 1079.301880,1199.427856 1079.300171,1206.461792 
	C1079.294922,1227.109619 1079.235840,1247.757446 1079.197144,1268.405273 
	C1079.194092,1270.070435 1079.117065,1271.738770 1079.190796,1273.400391 
	C1079.481567,1279.952515 1080.082642,1280.759277 1086.868774,1280.840088 
	C1100.521484,1281.002808 1114.180908,1280.714844 1127.829224,1281.005737 
	C1130.840698,1281.069824 1136.027222,1282.249390 1136.394531,1283.812500 
	C1137.483276,1288.444824 1136.868164,1293.544922 1136.404907,1298.412964 
	C1136.321411,1299.290527 1133.853516,1300.401733 1132.382202,1300.589722 
	C1129.428833,1300.967041 1126.403442,1300.820190 1123.407837,1300.822021 
	C1103.092407,1300.833984 1082.776855,1300.847290 1062.461426,1300.809082 
	C1059.224609,1300.802979 1055.988281,1300.539062 1051.344360,1300.331421 
	C1051.344360,1284.763916 1051.344360,1269.881348 1051.344482,1253.998901 
z"/>
<path fill="#131230" opacity="1.000000" stroke="none" 
	d="
M1976.296265,1603.683105 
	C1973.685425,1642.179810 1960.119751,1675.843262 1939.900757,1707.096313 
	C1923.682129,1732.165405 1903.731689,1754.022339 1881.571289,1773.930908 
	C1879.375122,1775.903687 1877.272583,1777.980469 1874.558350,1780.545898 
	C1890.470581,1805.100098 1904.112793,1830.534058 1912.907959,1858.268555 
	C1921.725220,1886.073120 1926.533813,1914.321167 1922.514282,1943.960693 
	C1632.661377,1815.687012 1339.343628,1814.431641 1042.861938,1911.582642 
	C1047.996582,1900.425537 1099.103760,1858.041626 1143.535767,1828.711182 
	C1180.259155,1804.469238 1218.848755,1783.620117 1259.092773,1764.258911 
	C1255.027344,1764.258911 1250.961792,1764.259155 1246.896362,1764.258911 
	C1215.049805,1764.257202 1183.630127,1760.974976 1153.490479,1750.165527 
	C1142.904907,1746.369019 1132.920898,1740.849121 1122.796875,1735.843506 
	C1120.039307,1734.480103 1117.771606,1732.125732 1113.193848,1728.637329 
	C1170.611084,1722.347778 1221.346191,1705.016602 1266.383423,1672.629517 
	C1278.223145,1664.115479 1289.471680,1654.917114 1300.489990,1642.624268 
	C1295.325439,1642.257568 1291.869385,1641.914551 1288.405151,1641.781738 
	C1261.887695,1640.765625 1236.103027,1636.184692 1211.499146,1625.934692 
	C1196.001465,1619.478149 1181.726074,1611.008423 1169.409302,1599.498169 
	C1166.058105,1596.366455 1163.072510,1592.843262 1159.572021,1589.131836 
	C1162.831421,1585.917114 1166.306763,1587.184082 1169.331665,1587.161255 
	C1202.444580,1586.910522 1235.168945,1583.602783 1267.318848,1575.346313 
	C1315.187500,1563.052979 1358.026245,1540.509766 1396.862183,1510.446533 
	C1427.152344,1486.998779 1456.458252,1462.283569 1486.365112,1438.335693 
	C1522.178589,1409.658203 1560.286255,1384.657959 1603.812988,1369.201050 
	C1651.651489,1352.213135 1700.874390,1342.991455 1751.888428,1345.804077 
	C1769.305542,1346.764526 1786.238037,1350.274536 1802.254028,1357.428223 
	C1830.488892,1370.039062 1845.974121,1388.901245 1852.949585,1419.494995 
	C1854.753174,1420.023560 1856.878906,1420.826904 1859.077637,1421.263672 
	C1892.445190,1427.895752 1918.424438,1446.113037 1938.405151,1472.986694 
	C1967.005737,1511.453979 1978.161987,1555.248535 1976.296265,1603.683105 
M1290.511108,1700.526001 
	C1290.511108,1700.526001 1290.374146,1700.692261 1288.943848,1700.580444 
	C1280.620117,1705.149170 1272.296509,1709.717773 1263.972900,1714.286499 
	C1274.784180,1714.559692 1284.123047,1711.132812 1294.122437,1704.818115 
	C1298.079224,1703.312988 1302.036011,1701.807861 1306.551636,1700.663940 
	C1307.090942,1700.588623 1307.350952,1700.278320 1308.396118,1698.730103 
	C1325.196167,1689.978516 1342.420654,1681.946289 1358.713745,1672.335205 
	C1401.088135,1647.338745 1439.723389,1617.525757 1473.365601,1581.373169 
	C1504.668335,1547.734497 1535.228149,1513.377197 1569.592041,1482.680420 
	C1596.772583,1458.400269 1625.126221,1435.848755 1657.837280,1419.423950 
	C1691.474243,1402.534058 1726.679932,1392.716919 1764.826538,1397.559326 
	C1766.540405,1397.776978 1768.305908,1397.587280 1770.047363,1397.587280 
	C1770.323608,1396.946899 1770.599854,1396.306519 1770.876099,1395.666260 
	C1770.010864,1395.228882 1769.155762,1394.770142 1768.278687,1394.358398 
	C1765.567017,1393.085693 1762.899780,1391.698608 1760.121948,1390.589844 
	C1739.016968,1382.165161 1717.070190,1382.392334 1695.102783,1385.088745 
	C1659.616577,1389.444580 1626.713379,1402.181274 1594.972534,1417.964722 
	C1546.595703,1442.020386 1503.019531,1473.106934 1464.324463,1510.723389 
	C1440.133667,1534.239868 1412.956787,1552.972046 1382.464111,1567.070312 
	C1369.262695,1573.173950 1355.896973,1578.922241 1342.605957,1584.832031 
	C1374.625488,1584.549683 1404.709351,1576.184814 1434.485107,1564.636353 
	C1435.043823,1564.511719 1435.224731,1564.179688 1436.499512,1562.881348 
	C1437.001099,1562.650757 1437.502563,1562.420288 1438.496704,1562.601929 
	C1439.048950,1562.487915 1439.231934,1562.163818 1440.340332,1561.021362 
	C1440.766113,1560.806641 1441.191895,1560.592041 1442.865845,1561.679321 
	C1443.656494,1562.585938 1444.447144,1563.492554 1444.070679,1565.142944 
	C1437.166870,1572.296875 1430.486816,1579.683960 1423.318359,1586.562012 
	C1399.851074,1609.078247 1376.861450,1632.157715 1352.414795,1653.566650 
	C1333.991089,1669.700928 1313.613647,1683.604370 1293.023560,1698.559570 
	C1292.247803,1699.178223 1291.471924,1699.796997 1290.511108,1700.526001 
M1248.090576,1821.761353 
	C1236.379517,1822.883545 1213.525757,1829.644287 1207.606812,1834.259766 
	C1220.776001,1832.003906 1232.767578,1829.950684 1244.758545,1827.893799 
	C1245.734009,1827.726685 1247.052734,1827.865723 1247.607056,1827.284912 
	C1248.821289,1826.013062 1249.646973,1824.370239 1250.725342,1822.801514 
	C1250.725342,1822.801514 1250.780396,1822.711914 1251.964478,1823.944092 
	C1255.309448,1823.969360 1258.654541,1823.994629 1262.364380,1824.525635 
	C1262.364380,1824.525635 1263.225708,1824.556641 1263.225708,1824.556641 
	C1263.225708,1824.556641 1263.706787,1823.823853 1265.178101,1823.751709 
	C1268.065552,1823.224243 1270.952881,1822.696655 1274.312012,1822.643677 
	C1274.312012,1822.643677 1275.259888,1822.660522 1275.259888,1822.660522 
	C1275.259888,1822.660522 1275.905029,1821.951782 1277.092896,1821.678223 
	C1286.081055,1820.499390 1295.069336,1819.320435 1305.053101,1818.196289 
	C1305.053101,1818.196289 1306.013672,1817.929199 1307.596680,1817.915039 
	C1311.745117,1817.314941 1315.893677,1816.714966 1321.586792,1816.292114 
	C1324.577881,1815.765747 1327.569092,1815.239380 1332.352051,1814.738525 
	C1350.418823,1813.740356 1368.436768,1812.256226 1386.545654,1810.656982 
	C1384.393555,1798.489746 1383.520264,1797.801392 1373.991821,1799.275269 
	C1369.399902,1799.985596 1364.761841,1800.423828 1360.191895,1801.247192 
	C1336.757812,1805.468628 1313.337402,1809.765869 1289.915771,1814.055542 
	C1277.956909,1816.245605 1266.005371,1818.475342 1252.920654,1820.417114 
	C1251.865356,1820.842407 1250.810181,1821.267700 1248.090576,1821.761353 
M1511.424805,1774.295044 
	C1515.816406,1774.015259 1520.208008,1773.735352 1526.281738,1773.348389 
	C1520.954102,1765.197021 1516.769897,1758.879761 1512.679199,1752.502686 
	C1510.381592,1748.920776 1507.000244,1748.214600 1503.140503,1748.567627 
	C1496.530151,1749.172119 1489.891235,1749.568604 1483.317993,1750.451172 
	C1470.225220,1752.208496 1457.168701,1754.236572 1442.643555,1756.083496 
	C1441.699463,1756.290405 1440.755249,1756.497192 1438.833252,1756.609253 
	C1438.148315,1756.751831 1437.612427,1757.114746 1436.117676,1757.507202 
	C1435.392700,1757.675537 1434.667603,1757.843872 1432.223267,1757.834961 
	C1424.860596,1759.300537 1417.497803,1760.766113 1408.454712,1762.129395 
	C1406.288818,1762.612061 1404.122925,1763.094727 1400.532715,1763.203857 
	C1395.250977,1764.460815 1389.969360,1765.717773 1383.050537,1767.364258 
	C1385.746460,1771.533203 1387.584351,1774.375244 1389.302246,1778.207886 
	C1389.407471,1778.883179 1389.678711,1779.483398 1390.323608,1781.258545 
	C1392.609253,1784.423096 1395.230225,1783.762817 1399.583984,1782.032715 
	C1401.732666,1781.753052 1403.881470,1781.473389 1407.632568,1781.505493 
	C1412.333984,1780.793945 1417.035278,1780.082397 1423.348999,1779.581665 
	C1424.927368,1779.270630 1426.505859,1778.959595 1429.529663,1779.164917 
	C1432.947388,1778.595581 1436.364990,1778.026245 1441.429810,1777.653564 
	C1443.060547,1777.416992 1444.691162,1777.180420 1447.407349,1777.371704 
	C1448.492065,1777.016357 1449.576660,1776.661011 1451.724243,1776.592896 
	C1452.448853,1776.515015 1453.173584,1776.437012 1455.266357,1776.978271 
	C1461.748169,1776.406860 1468.229980,1775.835449 1475.756226,1776.343872 
	C1477.323364,1777.382935 1478.907593,1779.338867 1480.454834,1779.310059 
	C1489.393555,1779.143066 1498.331665,1778.606445 1507.244141,1777.880005 
	C1508.149414,1777.806396 1508.883667,1775.635376 1511.424805,1774.295044 
M1523.808228,1817.072144 
	C1531.577637,1817.072144 1539.347046,1817.072144 1547.736572,1817.072144 
	C1547.032104,1807.552002 1543.762817,1799.439941 1538.702515,1792.889771 
	C1534.555542,1787.521729 1526.942871,1790.950806 1520.880493,1790.522339 
	C1518.318726,1790.341431 1515.690186,1791.104858 1511.437988,1791.075806 
	C1500.954590,1791.573486 1490.471069,1792.071045 1478.181030,1792.354126 
	C1452.130371,1792.554199 1408.405762,1797.445923 1400.726807,1801.019409 
	C1400.919067,1814.419434 1402.130249,1815.778809 1414.195312,1815.529541 
	C1438.387695,1815.029785 1462.578735,1814.463867 1487.847900,1814.972778 
	C1499.226440,1815.588745 1510.605103,1816.204712 1523.808228,1817.072144 
M1640.299683,1753.102661 
	C1634.272949,1752.766968 1628.246094,1752.431274 1621.267456,1752.200317 
	C1621.267456,1752.200317 1620.312744,1752.123169 1618.788086,1751.375977 
	C1596.827759,1747.569580 1544.406006,1747.252563 1535.254272,1751.290771 
	C1538.788818,1757.292725 1542.531250,1763.091431 1545.692871,1769.191284 
	C1548.265381,1774.154663 1551.644287,1776.494995 1557.443726,1776.483154 
	C1567.048096,1776.463623 1576.663696,1777.084473 1586.257446,1777.701050 
	C1603.443359,1778.805176 1620.616699,1780.106689 1639.385010,1781.952881 
	C1651.358887,1783.533936 1663.332886,1785.115112 1676.498413,1787.304077 
	C1683.234131,1787.653687 1689.723389,1791.175659 1697.452881,1789.117432 
	C1692.808350,1778.294800 1686.289062,1769.341553 1679.228760,1760.771729 
	C1678.087402,1759.386353 1675.947021,1758.319214 1674.139526,1758.080688 
	C1668.306885,1757.310669 1662.414062,1756.996582 1655.133179,1756.125977 
	C1650.586670,1755.421143 1646.040039,1754.716309 1640.299683,1753.102661 
M1684.275269,1832.373657 
	C1696.317139,1835.163940 1708.165527,1839.071899 1723.011353,1840.035278 
	C1718.103760,1829.208618 1714.231812,1820.205322 1709.875488,1811.442871 
	C1708.997437,1809.677002 1706.432007,1808.121216 1704.384766,1807.683838 
	C1698.302856,1806.383667 1692.091431,1805.689575 1684.398560,1804.157349 
	C1671.851929,1802.264282 1659.305420,1800.371216 1645.093506,1797.900635 
	C1621.941162,1793.180542 1565.071411,1789.865479 1558.148560,1793.065063 
	C1559.489624,1796.404541 1561.347656,1799.659790 1562.096802,1803.152954 
	C1564.389648,1813.844849 1571.490967,1816.883911 1581.535522,1817.629761 
	C1596.446045,1818.736816 1611.272583,1820.991943 1626.128052,1822.814453 
	C1637.633057,1824.226074 1649.127563,1825.723877 1661.805542,1827.274048 
	C1665.712891,1828.037598 1669.620117,1828.801147 1674.034912,1830.299316 
	C1674.828247,1830.235962 1675.621460,1830.172607 1677.831543,1830.171875 
	C1679.681885,1830.533813 1681.532227,1830.895752 1684.275269,1832.373657 
M1275.316895,1803.272827 
	C1274.780273,1803.357544 1274.475586,1803.669678 1273.401733,1804.484985 
	C1272.810547,1804.838135 1272.219360,1805.191284 1270.046997,1805.622192 
	C1261.845703,1806.559692 1254.465942,1809.503418 1247.947754,1814.834229 
	C1256.270996,1813.918579 1264.545776,1813.154785 1273.491211,1809.414185 
	C1274.334229,1809.237915 1275.177124,1809.061646 1277.033936,1809.310913 
	C1277.941406,1808.823242 1278.848877,1808.335571 1281.311890,1807.464478 
	C1313.739990,1801.413818 1346.167969,1795.363281 1378.677856,1789.297363 
	C1374.395142,1775.393188 1373.598511,1774.777710 1361.496582,1777.973999 
	C1349.649292,1781.102905 1337.888794,1784.560303 1325.663818,1787.410889 
	C1324.942993,1787.189453 1324.489990,1787.447388 1322.917969,1788.561157 
	C1319.272583,1789.690674 1315.627075,1790.820190 1310.983521,1792.095459 
	C1310.439209,1792.478271 1309.894897,1792.860962 1307.847290,1793.469727 
	C1297.209595,1796.844116 1286.571777,1800.218506 1275.316895,1803.272827 
M1763.413208,1455.660278 
	C1763.886841,1455.351440 1764.337036,1455.011719 1766.057129,1454.379395 
	C1769.446533,1453.138916 1772.454590,1451.553101 1773.393799,1445.520142 
	C1769.260376,1447.683228 1766.527466,1449.113403 1762.511963,1450.984375 
	C1761.665039,1451.300659 1760.818115,1451.616943 1758.662720,1451.893555 
	C1757.178833,1452.645508 1755.694946,1453.397583 1752.810913,1454.589355 
	C1729.066162,1463.340088 1705.466309,1472.512573 1681.538940,1480.731689 
	C1653.505981,1490.360962 1625.175659,1499.123535 1597.010132,1508.370850 
	C1593.835938,1509.412842 1589.993530,1509.593018 1586.638306,1514.507935 
	C1597.870483,1513.935425 1607.504150,1514.052612 1616.970825,1512.852417 
	C1650.601318,1508.588867 1682.745850,1498.885986 1713.475098,1484.680054 
	C1729.775146,1477.144653 1746.229980,1469.720947 1760.726440,1457.706177 
	C1761.378784,1457.167236 1762.031128,1456.628296 1763.413208,1455.660278 
M1848.284058,1607.104614 
	C1849.944092,1603.884644 1852.498657,1600.821533 1853.095825,1597.415039 
	C1854.871460,1587.286621 1855.877319,1577.023071 1857.213013,1566.584229 
	C1852.306763,1562.660522 1847.718262,1558.991089 1842.569946,1554.873901 
	C1828.398560,1567.783081 1812.761841,1565.351562 1796.237061,1561.061646 
	C1793.289795,1553.924561 1790.180908,1546.396362 1786.807373,1538.226929 
	C1797.693970,1534.033569 1807.587158,1530.217041 1817.484741,1526.411865 
	C1827.631348,1522.510864 1837.782349,1518.620850 1847.771118,1514.787598 
	C1843.734985,1497.666504 1833.902710,1484.618896 1820.888062,1478.328369 
	C1817.524902,1476.702881 1814.476807,1476.077393 1810.474609,1477.354980 
	C1787.642212,1484.644531 1764.704712,1491.617432 1741.713013,1498.392700 
	C1724.866089,1503.357300 1707.880981,1507.852783 1690.957397,1512.557495 
	C1690.885620,1513.085571 1690.813843,1513.613647 1690.742065,1514.141724 
	C1715.015259,1521.651855 1739.288574,1529.161987 1763.705200,1536.716553 
	C1763.705200,1549.362427 1763.659424,1561.003418 1763.717896,1572.643799 
	C1763.777344,1584.468018 1763.463501,1596.313965 1763.961304,1608.183350 
	C1770.334961,1608.183350 1775.947998,1609.620239 1780.118774,1607.782715 
	C1784.361206,1605.914062 1787.182495,1600.819458 1791.406006,1596.303223 
	C1795.387939,1606.922607 1798.838135,1616.124268 1802.551758,1626.028198 
	C1785.795166,1627.066895 1770.213379,1625.582642 1754.865723,1626.913818 
	C1754.865723,1634.240356 1754.865723,1640.443115 1754.865723,1647.625977 
	C1769.267456,1647.625977 1783.127808,1647.625977 1797.089355,1647.625977 
	C1801.386963,1658.834351 1805.360596,1669.197632 1809.334106,1679.561035 
	C1808.742554,1680.171021 1808.151123,1680.781128 1807.559570,1681.391235 
	C1804.092773,1680.027954 1800.550171,1678.828003 1797.178467,1677.260254 
	C1792.980347,1675.307861 1789.015991,1671.466797 1784.788330,1671.219604 
	C1771.287476,1670.430664 1757.711304,1670.927002 1743.867432,1670.927002 
	C1743.867432,1679.755127 1743.867432,1687.561279 1743.867432,1696.393799 
	C1756.245972,1696.393799 1768.011719,1696.393799 1781.378540,1696.393799 
	C1777.467651,1702.921265 1774.133057,1707.829834 1771.480591,1713.082520 
	C1768.253296,1719.473511 1763.953613,1722.290649 1756.437256,1721.173462 
	C1750.266968,1720.256348 1743.851807,1720.986450 1736.581177,1720.986450 
	C1732.081299,1728.503174 1727.236084,1736.596802 1722.094604,1745.185303 
	C1733.757690,1751.940674 1744.323853,1758.060791 1755.908203,1764.770630 
	C1771.570557,1751.766846 1787.252197,1739.402832 1802.145264,1726.152344 
	C1812.196533,1717.209473 1819.195435,1705.967163 1823.200684,1692.770264 
	C1827.937256,1677.164429 1833.651855,1661.856201 1838.867310,1646.393555 
	C1839.670654,1644.011597 1840.071045,1641.493652 1840.779785,1638.528076 
	C1836.157837,1638.208130 1832.303467,1637.941162 1826.609741,1637.546997 
	C1834.076660,1627.088745 1840.771729,1617.711426 1848.284058,1607.104614 
M1809.393311,1865.448975 
	C1828.436035,1872.234619 1847.478638,1879.020264 1866.652466,1885.852661 
	C1871.680176,1856.364746 1830.964478,1780.314453 1803.649780,1755.103638 
	C1803.092041,1768.386963 1802.573120,1780.748291 1802.005859,1794.257568 
	C1797.443848,1792.723022 1794.392090,1791.610840 1791.289185,1790.666260 
	C1765.185425,1782.720459 1739.088135,1774.751709 1712.941528,1766.949097 
	C1709.679810,1765.975586 1706.079834,1764.683228 1701.818237,1767.444702 
	C1706.112549,1774.584839 1710.517456,1781.180298 1714.139038,1788.180908 
	C1716.642944,1793.021240 1719.847168,1795.564575 1725.258911,1796.915771 
	C1742.046631,1801.108032 1758.568726,1806.369385 1775.369629,1810.501099 
	C1786.539673,1813.248169 1790.030273,1821.364380 1793.112305,1832.025024 
	C1771.144775,1826.335205 1751.153320,1817.392090 1728.082642,1814.099609 
	C1731.204956,1822.297363 1734.298828,1828.619629 1735.973999,1835.297852 
	C1737.852539,1842.787476 1742.255371,1845.934204 1749.426758,1847.863159 
	C1769.031250,1853.135864 1788.430786,1859.171265 1809.393311,1865.448975 
M1891.062988,1661.947876 
	C1877.187500,1691.471680 1857.729248,1717.058350 1834.486816,1740.750122 
	C1839.236450,1746.076294 1843.548462,1750.911743 1848.885864,1756.896973 
	C1854.829102,1750.644531 1860.054321,1745.215332 1865.204834,1739.716309 
	C1882.833252,1720.894287 1897.884766,1700.287231 1909.411499,1677.112793 
	C1934.319214,1627.036133 1938.007324,1575.826782 1917.825439,1523.383301 
	C1908.759399,1499.824341 1895.984375,1478.489868 1877.722534,1460.763672 
	C1876.075928,1459.165283 1873.961548,1458.048584 1872.064331,1456.708130 
	C1873.775879,1462.463135 1876.595459,1466.934937 1879.249878,1471.502808 
	C1882.093872,1476.396606 1884.937378,1481.301392 1887.515381,1486.337402 
	C1916.898560,1543.735718 1918.282471,1601.833374 1891.062988,1661.947876 
M1675.922607,1620.599731 
	C1674.731567,1625.537231 1673.540405,1630.474609 1671.912109,1637.224609 
	C1681.477051,1632.837769 1688.886719,1629.144775 1696.533936,1626.036621 
	C1701.543457,1624.000488 1704.488892,1620.683594 1706.613525,1615.796387 
	C1714.309937,1598.091797 1722.350586,1580.537109 1730.210327,1562.903198 
	C1731.253540,1560.562500 1732.002686,1558.090820 1732.830811,1555.835571 
	C1732.078491,1555.290039 1731.827271,1554.967651 1731.535278,1554.925293 
	C1730.899536,1554.832642 1730.215942,1554.757324 1729.599365,1554.892334 
	C1707.952637,1559.627319 1686.343872,1562.519409 1664.902466,1553.871338 
	C1663.996338,1553.505859 1662.910522,1553.261475 1661.967773,1553.391357 
	C1660.711670,1553.564697 1659.114258,1553.795898 1658.352417,1554.630981 
	C1650.163452,1563.607666 1641.824219,1572.475220 1633.993530,1582.560913 
	C1642.156128,1587.491943 1649.271484,1591.769165 1656.365356,1596.081543 
	C1663.679810,1600.528198 1670.973389,1605.009277 1678.332397,1609.509521 
	C1677.508057,1613.241211 1676.867798,1616.139526 1675.922607,1620.599731 
M1649.360107,1673.377319 
	C1644.892700,1661.843750 1640.425293,1650.310181 1635.957886,1638.776611 
	C1635.144287,1639.012207 1634.330566,1639.247925 1633.516968,1639.483521 
	C1635.568848,1653.888916 1637.227661,1668.364380 1639.774414,1682.681763 
	C1642.806274,1699.725952 1655.913330,1707.971924 1670.128784,1715.226562 
	C1668.363403,1709.487061 1665.539917,1704.449951 1662.825684,1699.354614 
	C1658.479126,1691.195679 1654.204956,1682.998291 1649.360107,1673.377319 
z"/>
<path fill="#FAFAFA" opacity="1.000000" stroke="none" 
	d="
M444.703125,1546.792236 
	C457.440979,1530.115479 469.852783,1514.086060 482.058105,1497.901123 
	C498.652405,1475.896118 514.993958,1453.700195 531.621399,1431.720459 
	C546.817871,1411.632202 562.325195,1391.779419 577.561096,1371.720825 
	C600.060303,1342.099854 622.271790,1312.258911 644.925171,1282.756714 
	C662.701660,1259.605713 681.083252,1236.920044 698.960022,1213.844849 
	C709.301147,1200.496704 719.098694,1186.728882 729.275085,1173.251343 
	C748.888794,1147.275269 768.542664,1121.328979 788.293274,1095.457031 
	C796.550415,1084.640747 805.262451,1074.170410 813.467712,1063.316040 
	C822.635071,1051.189087 831.328552,1038.703979 840.470398,1026.557129 
	C852.254211,1010.899414 864.306335,995.444031 876.192322,979.862915 
	C890.702759,960.841248 905.101807,941.734436 919.660400,922.749817 
	C930.546814,908.553772 941.667725,894.537598 952.578064,880.359619 
	C964.531738,864.825806 976.327759,849.170654 988.258240,833.618896 
	C1000.588501,817.546143 1013.102783,801.613586 1025.340942,785.471375 
	C1035.772949,771.711426 1045.788330,757.635132 1056.243164,743.892944 
	C1066.875610,729.917480 1077.876221,716.222900 1088.612671,702.325867 
	C1100.385864,687.087036 1111.981689,671.711304 1123.767700,656.482544 
	C1132.705933,644.933594 1141.928833,633.604492 1150.827637,622.025757 
	C1160.106323,609.952820 1169.073975,597.641235 1178.312134,585.536743 
	C1190.404907,569.692261 1202.653687,553.967041 1214.790771,538.156372 
	C1226.520020,522.876831 1238.122559,507.499420 1249.908569,492.263947 
	C1264.132324,473.877289 1278.449097,455.562073 1292.808228,437.280853 
	C1300.199707,427.870544 1307.798706,418.623413 1315.219971,409.236115 
	C1316.030029,408.211609 1316.283325,406.746979 1317.503662,403.740173 
	C1321.034058,409.737122 1323.278687,412.868927 1324.837769,416.311279 
	C1333.567261,435.586151 1342.219360,454.897339 1350.725708,474.271698 
	C1358.429688,491.818298 1365.810669,509.506592 1373.519897,527.050842 
	C1382.566040,547.637634 1391.964111,568.070435 1400.931641,588.690857 
	C1410.705566,611.165527 1420.019653,633.840088 1429.792114,656.315491 
	C1441.410156,683.035950 1453.279419,709.647339 1465.082642,736.287109 
	C1476.761108,762.645508 1488.597046,788.934692 1500.167236,815.340393 
	C1509.208130,835.973877 1517.870728,856.773010 1526.846069,877.435608 
	C1534.102173,894.140259 1541.684692,910.703247 1548.923096,927.415405 
	C1558.903931,950.459229 1568.548096,973.649475 1578.623291,996.651367 
	C1585.385620,1012.090027 1592.861938,1027.216064 1599.615356,1042.658447 
	C1605.434814,1055.964722 1610.549683,1069.577881 1616.263184,1082.932495 
	C1618.074707,1087.166870 1621.200928,1090.836670 1623.032227,1095.065186 
	C1625.908936,1101.707886 1628.108765,1108.640503 1630.778198,1115.377808 
	C1631.878174,1118.153564 1633.132080,1120.973511 1634.869995,1123.372070 
	C1640.534058,1131.188721 1640.135620,1139.776489 1637.329956,1148.067749 
	C1630.887329,1167.107300 1623.435547,1185.805908 1617.031616,1204.857544 
	C1611.453247,1221.453491 1606.831909,1238.369019 1601.611328,1255.088379 
	C1599.938232,1260.446655 1597.635620,1265.605469 1595.742432,1270.898926 
	C1593.534912,1277.071533 1591.460571,1283.291870 1589.265259,1289.674927 
	C1583.259766,1271.827026 1577.096802,1254.260132 1571.457397,1236.526733 
	C1566.460571,1220.814087 1562.182983,1204.873779 1557.325073,1189.115112 
	C1554.221191,1179.046509 1550.592651,1169.140625 1547.283325,1159.134155 
	C1542.927124,1145.962646 1538.551025,1132.796143 1534.377197,1119.566284 
	C1531.104736,1109.192871 1528.246948,1098.688843 1524.987183,1088.311157 
	C1520.818359,1075.040039 1516.483154,1061.820557 1512.124390,1048.610107 
	C1506.446289,1031.401001 1500.428589,1014.299561 1495.023315,997.006104 
	C1490.890747,983.784546 1487.655762,970.284729 1483.683228,957.010010 
	C1481.423218,949.457886 1478.377075,942.144775 1475.871826,934.661499 
	C1470.216187,917.767883 1464.673340,900.836487 1459.091064,883.918335 
	C1454.322876,869.467957 1449.360596,855.077637 1444.854492,840.545898 
	C1439.762085,824.123108 1435.361694,807.483521 1430.155029,791.098755 
	C1423.363525,769.726990 1415.968140,748.547974 1409.044312,727.217346 
	C1405.265869,715.576721 1401.938477,703.789978 1398.382812,692.076660 
	C1392.154297,671.557861 1386.221924,650.942139 1379.578247,630.558533 
	C1373.026611,610.457397 1365.583008,590.648499 1358.849976,570.604248 
	C1355.081177,559.384644 1352.092285,547.905579 1348.519897,536.616943 
	C1341.361328,513.995544 1334.018799,491.432343 1326.829590,468.820557 
	C1326.131592,466.625275 1326.586060,463.856720 1325.413818,462.070801 
	C1323.904907,459.771942 1321.504395,457.154327 1319.084839,456.664215 
	C1317.377686,456.318390 1314.316772,458.841949 1313.031860,460.838440 
	C1304.063477,474.773621 1295.458496,488.941864 1286.624146,502.964355 
	C1277.227905,517.878723 1267.623535,532.662354 1258.262085,547.598328 
	C1246.654907,566.117676 1235.316650,584.806030 1223.654785,603.290527 
	C1210.885132,623.530762 1197.764771,643.549927 1185.015991,663.803040 
	C1176.736328,676.956299 1168.994751,690.447815 1160.742310,703.618774 
	C1152.666504,716.507996 1144.218750,729.163696 1135.988403,741.956787 
	C1124.480347,759.844971 1113.023560,777.766174 1101.542847,795.671875 
	C1095.631592,804.891174 1089.594971,814.032837 1083.830078,823.342712 
	C1074.791748,837.938721 1066.096924,852.749084 1056.956787,867.280090 
	C1047.954712,881.591492 1038.436890,895.578003 1029.403442,909.870239 
	C1017.863647,928.128113 1006.743713,946.652283 995.139648,964.868591 
	C985.526489,979.959534 975.311707,994.666809 965.662231,1009.735352 
	C956.171021,1024.556763 947.117676,1039.657715 937.759460,1054.565308 
	C926.638062,1072.281494 915.369690,1089.905396 904.216919,1107.602173 
	C897.504761,1118.252808 890.937378,1128.994629 884.223450,1139.644165 
	C871.126343,1160.418701 857.923035,1181.126465 844.855408,1201.919434 
	C832.860840,1221.005005 821.084717,1240.228271 809.033203,1259.277466 
	C796.798035,1278.616821 784.268433,1297.769897 772.004883,1317.091675 
	C757.934998,1339.259521 744.109436,1361.582642 730.002502,1383.726685 
	C718.260315,1402.158813 706.157715,1420.361206 694.406677,1438.787720 
	C677.253601,1465.685059 660.285522,1492.700317 643.207520,1519.645508 
	C639.470154,1525.542358 636.041077,1531.711914 631.669556,1537.107300 
	C627.432861,1542.336182 626.240784,1546.925781 631.528931,1551.835205 
	C625.650452,1565.760620 616.997742,1577.276978 607.976562,1588.649414 
	C605.182251,1592.171997 603.697754,1596.859741 602.130005,1601.200684 
	C599.531372,1608.395630 594.546631,1611.880981 587.049011,1611.937378 
	C577.051025,1612.012573 567.052368,1612.023926 557.054016,1612.025513 
	C508.060852,1612.033447 459.067719,1612.029297 410.074554,1612.029297 
	C406.525513,1612.029297 402.976501,1612.029297 397.629333,1612.029297 
	C403.639771,1597.980225 413.514313,1588.922607 420.930969,1578.279785 
	C428.308655,1567.692993 436.468262,1557.651123 444.703125,1546.792236 
z"/>
<path fill="#0F102E" opacity="1.000000" stroke="none" 
	d="
M634.500000,1542.500000 
	C635.066650,1542.599976 635.133301,1543.200073 635.200073,1543.800049 
	C634.800049,1543.533325 634.400024,1543.266602 634.500000,1542.500000 
z"/>
<path fill="#292A44" opacity="1.000000" stroke="none" 
	d="
M943.657837,1262.304199 
	C942.247803,1260.823242 940.809692,1259.103882 941.207031,1258.145386 
	C945.513428,1247.758301 950.093689,1237.484497 954.671082,1227.211792 
	C954.874146,1226.755981 955.768250,1226.608154 957.650208,1225.650391 
	C962.929810,1237.152100 968.189636,1248.610840 974.114563,1261.518555 
	C963.366272,1263.220459 953.873718,1262.088501 943.657837,1262.304199 
z"/>
<path fill="#292A44" opacity="1.000000" stroke="none" 
	d="
M1428.963135,1260.369873 
	C1433.282471,1248.403442 1437.882690,1237.203369 1443.113037,1224.469604 
	C1451.672119,1236.485107 1455.062134,1248.781738 1461.308228,1261.629272 
	C1449.731934,1262.608032 1439.528809,1263.525024 1428.963135,1260.369873 
z"/>
<path fill="#292A44" opacity="1.000000" stroke="none" 
	d="
M1223.080078,1237.522217 
	C1214.910034,1238.925049 1207.463623,1239.924561 1200.336670,1240.881104 
	C1195.947144,1233.786743 1197.808960,1227.362427 1198.057129,1221.284668 
	C1198.121094,1219.718628 1201.506714,1217.089600 1203.432495,1217.028442 
	C1208.681763,1216.861694 1214.140015,1217.137939 1219.200195,1218.452393 
	C1229.161011,1221.039917 1230.854004,1228.715698 1223.080078,1237.522217 
z"/>
<path fill="#C22127" opacity="1.000000" stroke="none" 
	d="
M1294.105713,1698.500732 
	C1313.613647,1683.604370 1333.991089,1669.700928 1352.414795,1653.566650 
	C1376.861450,1632.157715 1399.851074,1609.078247 1423.318359,1586.562012 
	C1430.486816,1579.683960 1437.166870,1572.296875 1445.210815,1564.563477 
	C1448.277588,1561.356812 1450.204224,1558.729614 1452.351562,1555.969849 
	C1452.341675,1555.842041 1452.111084,1555.846802 1451.192871,1555.842041 
	C1447.542603,1557.347534 1444.580078,1558.862427 1441.617554,1560.377441 
	C1441.191895,1560.592041 1440.766113,1560.806641 1439.505371,1561.388062 
	C1438.670532,1561.754761 1438.004028,1562.189697 1438.004028,1562.189697 
	C1437.502563,1562.420288 1437.001099,1562.650757 1435.572266,1563.328857 
	C1434.645142,1563.776489 1433.970093,1564.235229 1433.970093,1564.235229 
	C1404.709351,1576.184814 1374.625488,1584.549683 1342.605957,1584.832031 
	C1355.896973,1578.922241 1369.262695,1573.173950 1382.464111,1567.070312 
	C1412.956787,1552.972046 1440.133667,1534.239868 1464.324463,1510.723389 
	C1503.019531,1473.106934 1546.595703,1442.020386 1594.972534,1417.964722 
	C1626.713379,1402.181274 1659.616577,1389.444580 1695.102783,1385.088745 
	C1717.070190,1382.392334 1739.016968,1382.165161 1760.121948,1390.589844 
	C1762.899780,1391.698608 1765.567017,1393.085693 1768.278687,1394.358398 
	C1769.155762,1394.770142 1770.010864,1395.228882 1770.876099,1395.666260 
	C1770.599854,1396.306519 1770.323608,1396.946899 1770.047363,1397.587280 
	C1768.305908,1397.587280 1766.540405,1397.776978 1764.826538,1397.559326 
	C1726.679932,1392.716919 1691.474243,1402.534058 1657.837280,1419.423950 
	C1625.126221,1435.848755 1596.772583,1458.400269 1569.592041,1482.680420 
	C1535.228149,1513.377197 1504.668335,1547.734497 1473.365601,1581.373169 
	C1439.723389,1617.525757 1401.088135,1647.338745 1358.713745,1672.335205 
	C1342.420654,1681.946289 1325.196167,1689.978516 1307.622681,1699.283081 
	C1306.849243,1699.836060 1305.992920,1700.302734 1305.992920,1700.302734 
	C1302.036011,1701.807861 1298.079224,1703.312988 1292.943115,1704.570312 
	C1291.300537,1703.112427 1290.837402,1701.902344 1290.374146,1700.692261 
	C1290.374146,1700.692261 1290.511108,1700.526001 1291.113892,1700.410767 
	C1292.513062,1699.697266 1293.309448,1699.098999 1294.105713,1698.500732 
z"/>
<path fill="#F6F7F8" opacity="1.000000" stroke="none" 
	d="
M1847.875488,1607.719482 
	C1840.771729,1617.711426 1834.076660,1627.088745 1826.609741,1637.546997 
	C1832.303467,1637.941162 1836.157837,1638.208130 1840.779785,1638.528076 
	C1840.071045,1641.493652 1839.670654,1644.011597 1838.867310,1646.393555 
	C1833.651855,1661.856201 1827.937256,1677.164429 1823.200684,1692.770264 
	C1819.195435,1705.967163 1812.196533,1717.209473 1802.145264,1726.152344 
	C1787.252197,1739.402832 1771.570557,1751.766846 1755.908203,1764.770630 
	C1744.323853,1758.060791 1733.757690,1751.940674 1722.094604,1745.185303 
	C1727.236084,1736.596802 1732.081299,1728.503174 1736.581177,1720.986450 
	C1743.851807,1720.986450 1750.266968,1720.256348 1756.437256,1721.173462 
	C1763.953613,1722.290649 1768.253296,1719.473511 1771.480591,1713.082520 
	C1774.133057,1707.829834 1777.467651,1702.921265 1781.378540,1696.393799 
	C1768.011719,1696.393799 1756.245972,1696.393799 1743.867432,1696.393799 
	C1743.867432,1687.561279 1743.867432,1679.755127 1743.867432,1670.927002 
	C1757.711304,1670.927002 1771.287476,1670.430664 1784.788330,1671.219604 
	C1789.015991,1671.466797 1792.980347,1675.307861 1797.178467,1677.260254 
	C1800.550171,1678.828003 1804.092773,1680.027954 1807.559570,1681.391235 
	C1808.151123,1680.781128 1808.742554,1680.171021 1809.334106,1679.561035 
	C1805.360596,1669.197632 1801.386963,1658.834351 1797.089355,1647.625977 
	C1783.127808,1647.625977 1769.267456,1647.625977 1754.865723,1647.625977 
	C1754.865723,1640.443115 1754.865723,1634.240356 1754.865723,1626.913818 
	C1770.213379,1625.582642 1785.795166,1627.066895 1802.551758,1626.028198 
	C1798.838135,1616.124268 1795.387939,1606.922607 1791.406006,1596.303223 
	C1787.182495,1600.819458 1784.361206,1605.914062 1780.118774,1607.782715 
	C1775.947998,1609.620239 1770.334961,1608.183350 1763.961304,1608.183350 
	C1763.463501,1596.313965 1763.777344,1584.468018 1763.717896,1572.643799 
	C1763.659424,1561.003418 1763.705200,1549.362427 1763.705200,1536.716553 
	C1739.288574,1529.161987 1715.015259,1521.651855 1690.742065,1514.141724 
	C1690.813843,1513.613647 1690.885620,1513.085571 1690.957397,1512.557495 
	C1707.880981,1507.852783 1724.866089,1503.357300 1741.713013,1498.392700 
	C1764.704712,1491.617432 1787.642212,1484.644531 1810.474609,1477.354980 
	C1814.476807,1476.077393 1817.524902,1476.702881 1820.888062,1478.328369 
	C1833.902710,1484.618896 1843.734985,1497.666504 1847.771118,1514.787598 
	C1837.782349,1518.620850 1827.631348,1522.510864 1817.484741,1526.411865 
	C1807.587158,1530.217041 1797.693970,1534.033569 1786.807373,1538.226929 
	C1790.180908,1546.396362 1793.289795,1553.924561 1796.237061,1561.061646 
	C1812.761841,1565.351562 1828.398560,1567.783081 1842.569946,1554.873901 
	C1847.718262,1558.991089 1852.306763,1562.660522 1857.213013,1566.584229 
	C1855.877319,1577.023071 1854.871460,1587.286621 1853.095825,1597.415039 
	C1852.498657,1600.821533 1849.944092,1603.884644 1847.875488,1607.719482 
z"/>
<path fill="#C22127" opacity="1.000000" stroke="none" 
	d="
M1808.652344,1865.176758 
	C1788.430786,1859.171265 1769.031250,1853.135864 1749.426758,1847.863159 
	C1742.255371,1845.934204 1737.852539,1842.787476 1735.973999,1835.297852 
	C1734.298828,1828.619629 1731.204956,1822.297363 1728.082642,1814.099609 
	C1751.153320,1817.392090 1771.144775,1826.335205 1793.112305,1832.025024 
	C1790.030273,1821.364380 1786.539673,1813.248169 1775.369629,1810.501099 
	C1758.568726,1806.369385 1742.046631,1801.108032 1725.258911,1796.915771 
	C1719.847168,1795.564575 1716.642944,1793.021240 1714.139038,1788.180908 
	C1710.517456,1781.180298 1706.112549,1774.584839 1701.818237,1767.444702 
	C1706.079834,1764.683228 1709.679810,1765.975586 1712.941528,1766.949097 
	C1739.088135,1774.751709 1765.185425,1782.720459 1791.289185,1790.666260 
	C1794.392090,1791.610840 1797.443848,1792.723022 1802.005859,1794.257568 
	C1802.573120,1780.748291 1803.092041,1768.386963 1803.649780,1755.103638 
	C1830.964478,1780.314453 1871.680176,1856.364746 1866.652466,1885.852661 
	C1847.478638,1879.020264 1828.436035,1872.234619 1808.652344,1865.176758 
z"/>
<path fill="#BC2128" opacity="1.000000" stroke="none" 
	d="
M1891.400391,1661.272583 
	C1918.282471,1601.833374 1916.898560,1543.735718 1887.515381,1486.337402 
	C1884.937378,1481.301392 1882.093872,1476.396606 1879.249878,1471.502808 
	C1876.595459,1466.934937 1873.775879,1462.463135 1872.064331,1456.708130 
	C1873.961548,1458.048584 1876.075928,1459.165283 1877.722534,1460.763672 
	C1895.984375,1478.489868 1908.759399,1499.824341 1917.825439,1523.383301 
	C1938.007324,1575.826782 1934.319214,1627.036133 1909.411499,1677.112793 
	C1897.884766,1700.287231 1882.833252,1720.894287 1865.204834,1739.716309 
	C1860.054321,1745.215332 1854.829102,1750.644531 1848.885864,1756.896973 
	C1843.548462,1750.911743 1839.236450,1746.076294 1834.486816,1740.750122 
	C1857.729248,1717.058350 1877.187500,1691.471680 1891.400391,1661.272583 
z"/>
<path fill="#F6F7F8" opacity="1.000000" stroke="none" 
	d="
M1676.075073,1619.818848 
	C1676.867798,1616.139526 1677.508057,1613.241211 1678.332397,1609.509521 
	C1670.973389,1605.009277 1663.679810,1600.528198 1656.365356,1596.081543 
	C1649.271484,1591.769165 1642.156128,1587.491943 1633.993530,1582.560913 
	C1641.824219,1572.475220 1650.163452,1563.607666 1658.352417,1554.630981 
	C1659.114258,1553.795898 1660.711670,1553.564697 1661.967773,1553.391357 
	C1662.910522,1553.261475 1663.996338,1553.505859 1664.902466,1553.871338 
	C1686.343872,1562.519409 1707.952637,1559.627319 1729.599365,1554.892334 
	C1730.215942,1554.757324 1730.899536,1554.832642 1731.535278,1554.925293 
	C1731.827271,1554.967651 1732.078491,1555.290039 1732.830811,1555.835571 
	C1732.002686,1558.090820 1731.253540,1560.562500 1730.210327,1562.903198 
	C1722.350586,1580.537109 1714.309937,1598.091797 1706.613525,1615.796387 
	C1704.488892,1620.683594 1701.543457,1624.000488 1696.533936,1626.036621 
	C1688.886719,1629.144775 1681.477051,1632.837769 1671.912109,1637.224609 
	C1673.540405,1630.474609 1674.731567,1625.537231 1676.075073,1619.818848 
z"/>
<path fill="#C02329" opacity="1.000000" stroke="none" 
	d="
M1637.795288,1781.325806 
	C1620.616699,1780.106689 1603.443359,1778.805176 1586.257446,1777.701050 
	C1576.663696,1777.084473 1567.048096,1776.463623 1557.443726,1776.483154 
	C1551.644287,1776.494995 1548.265381,1774.154663 1545.692871,1769.191284 
	C1542.531250,1763.091431 1538.788818,1757.292725 1535.254272,1751.290771 
	C1544.406006,1747.252563 1596.827759,1747.569580 1619.514771,1752.454346 
	C1626.092773,1762.797119 1631.944092,1772.061401 1637.795288,1781.325806 
z"/>
<path fill="#C02329" opacity="1.000000" stroke="none" 
	d="
M1660.626831,1827.183350 
	C1649.127563,1825.723877 1637.633057,1824.226074 1626.128052,1822.814453 
	C1611.272583,1820.991943 1596.446045,1818.736816 1581.535522,1817.629761 
	C1571.490967,1816.883911 1564.389648,1813.844849 1562.096802,1803.152954 
	C1561.347656,1799.659790 1559.489624,1796.404541 1558.148560,1793.065063 
	C1565.071411,1789.865479 1621.941162,1793.180542 1645.973877,1798.865356 
	C1651.445190,1808.947754 1656.036011,1818.065552 1660.626831,1827.183350 
z"/>
<path fill="#B62129" opacity="1.000000" stroke="none" 
	d="
M1759.889282,1457.591797 
	C1746.229980,1469.720947 1729.775146,1477.144653 1713.475098,1484.680054 
	C1682.745850,1498.885986 1650.601318,1508.588867 1616.970825,1512.852417 
	C1607.504150,1514.052612 1597.870483,1513.935425 1586.638306,1514.507935 
	C1589.993530,1509.593018 1593.835938,1509.412842 1597.010132,1508.370850 
	C1625.175659,1499.123535 1653.505981,1490.360962 1681.538940,1480.731689 
	C1705.466309,1472.512573 1729.066162,1463.340088 1754.163574,1454.375244 
	C1757.001221,1453.418579 1758.486206,1452.675903 1759.971191,1451.933228 
	C1760.818115,1451.616943 1761.665039,1451.300659 1763.355469,1451.800537 
	C1764.387207,1453.291382 1764.575439,1453.966064 1764.763794,1454.640869 
	C1764.337036,1455.011719 1763.886841,1455.351440 1762.482056,1455.914551 
	C1760.997070,1456.643066 1760.443115,1457.117432 1759.889282,1457.591797 
z"/>
<path fill="#BC2128" opacity="1.000000" stroke="none" 
	d="
M1486.770264,1813.925171 
	C1462.578735,1814.463867 1438.387695,1815.029785 1414.195312,1815.529541 
	C1402.130249,1815.778809 1400.919067,1814.419434 1400.726807,1801.019409 
	C1408.405762,1797.445923 1452.130371,1792.554199 1479.286987,1793.142944 
	C1482.518677,1800.596191 1484.644531,1807.260742 1486.770264,1813.925171 
z"/>
<path fill="#C22127" opacity="1.000000" stroke="none" 
	d="
M1428.084229,1778.648560 
	C1426.505859,1778.959595 1424.927368,1779.270630 1421.928223,1779.087402 
	C1415.534546,1778.640747 1409.959351,1775.335449 1406.030151,1781.193726 
	C1403.881470,1781.473389 1401.732666,1781.753052 1398.270264,1781.500244 
	C1394.676392,1780.647949 1392.396240,1780.328247 1390.115967,1780.008667 
	C1389.678711,1779.483398 1389.407471,1778.883179 1389.509277,1776.851562 
	C1389.725464,1771.555054 1390.639771,1768.430908 1395.156006,1767.204468 
	C1397.572998,1766.547974 1399.699463,1764.821289 1401.957031,1763.577393 
	C1404.122925,1763.094727 1406.288818,1762.612061 1409.822510,1762.590576 
	C1418.774292,1761.371826 1426.358398,1759.692017 1433.942505,1758.012207 
	C1434.667603,1757.843872 1435.392700,1757.675537 1437.156982,1757.580566 
	C1438.844360,1757.523804 1439.382690,1757.207153 1439.811157,1756.704102 
	C1440.755249,1756.497192 1441.699463,1756.290405 1443.890625,1756.586792 
	C1451.721558,1757.403931 1458.467041,1754.161011 1465.279541,1758.428345 
	C1465.876709,1759.614502 1466.085327,1760.360229 1466.390015,1761.679443 
	C1466.981079,1762.829712 1467.476074,1763.406372 1467.994629,1763.988892 
	C1468.018311,1763.994629 1468.005005,1764.041748 1467.983643,1764.839233 
	C1468.359863,1771.335815 1465.821777,1774.023071 1459.993164,1774.127441 
	C1457.948853,1774.164062 1455.929199,1775.575439 1453.898193,1776.359131 
	C1453.173584,1776.437012 1452.448853,1776.515015 1450.622314,1776.367554 
	C1448.454224,1776.409424 1447.388062,1776.676636 1446.321899,1776.943848 
	C1444.691162,1777.180420 1443.060547,1777.416992 1440.056641,1777.165405 
	C1434.943848,1776.223511 1430.931641,1774.304321 1428.084229,1778.648560 
z"/>
<path fill="#B62129" opacity="1.000000" stroke="none" 
	d="
M1326.090210,1787.873413 
	C1337.888794,1784.560303 1349.649292,1781.102905 1361.496582,1777.973999 
	C1373.598511,1774.777710 1374.395142,1775.393188 1378.677856,1789.297363 
	C1346.167969,1795.363281 1313.739990,1801.413818 1280.033447,1807.642090 
	C1277.843384,1808.174927 1276.931763,1808.530151 1276.020142,1808.885498 
	C1275.177124,1809.061646 1274.334229,1809.237915 1272.773926,1808.792969 
	C1271.913818,1807.296021 1271.770996,1806.420288 1271.628052,1805.544434 
	C1272.219360,1805.191284 1272.810547,1804.838135 1274.178467,1804.299316 
	C1275.313477,1804.000244 1275.639771,1803.826660 1275.934082,1803.592896 
	C1286.571777,1800.218506 1297.209595,1796.844116 1309.130371,1793.373047 
	C1310.936157,1792.833984 1311.458862,1792.391846 1311.981689,1791.949707 
	C1315.627075,1790.820190 1319.272583,1789.690674 1324.067017,1788.353271 
	C1325.216064,1788.145508 1326.090210,1787.873413 1326.090210,1787.873413 
z"/>
<path fill="#B1212C" opacity="1.000000" stroke="none" 
	d="
M1320.042114,1816.114990 
	C1315.893677,1816.714966 1311.745117,1817.314941 1306.597900,1817.649902 
	C1305.085083,1817.637085 1304.571289,1817.889282 1304.057495,1818.141602 
	C1295.069336,1819.320435 1286.081055,1820.499390 1275.976562,1821.807495 
	C1274.520386,1822.014282 1274.180420,1822.091675 1273.840332,1822.169189 
	C1270.952881,1822.696655 1268.065552,1823.224243 1264.010986,1823.788086 
	C1262.843750,1823.824463 1261.999512,1824.019897 1261.999512,1824.019775 
	C1258.654541,1823.994629 1255.309448,1823.969360 1251.970337,1823.033569 
	C1252.667603,1821.644287 1253.359131,1821.165649 1254.050537,1820.687012 
	C1266.005371,1818.475342 1277.956909,1816.245605 1289.915771,1814.055542 
	C1313.337402,1809.765869 1336.757812,1805.468628 1360.191895,1801.247192 
	C1364.761841,1800.423828 1369.399902,1799.985596 1373.991821,1799.275269 
	C1383.520264,1797.801392 1384.393555,1798.489746 1386.545654,1810.656982 
	C1368.436768,1812.256226 1350.418823,1813.740356 1330.655762,1814.533813 
	C1325.987061,1814.924316 1323.014648,1815.519653 1320.042114,1816.114990 
z"/>
<path fill="#F7EFF0" opacity="1.000000" stroke="none" 
	d="
M1661.216187,1827.228760 
	C1656.036011,1818.065552 1651.445190,1808.947754 1646.806519,1799.154053 
	C1659.305420,1800.371216 1671.851929,1802.264282 1685.260254,1805.107056 
	C1690.210205,1814.417603 1695.920776,1822.094482 1697.778564,1832.340820 
	C1692.404541,1831.936523 1687.893555,1831.597046 1683.382568,1831.257690 
	C1681.532227,1830.895752 1679.681885,1830.533813 1676.445312,1829.758423 
	C1674.548584,1829.418213 1674.038086,1829.491455 1673.527466,1829.564697 
	C1669.620117,1828.801147 1665.712891,1828.037598 1661.216187,1827.228760 
z"/>
<path fill="#F7EFF0" opacity="1.000000" stroke="none" 
	d="
M1638.590088,1781.639404 
	C1631.944092,1772.061401 1626.092773,1762.797119 1620.277100,1752.827881 
	C1620.312744,1752.123169 1621.267456,1752.200317 1622.427124,1752.492188 
	C1629.555664,1753.193237 1635.524658,1753.602295 1641.493530,1754.011475 
	C1646.040039,1754.716309 1650.586670,1755.421143 1656.031006,1757.031982 
	C1663.054810,1767.524048 1669.180786,1777.110107 1675.306763,1786.696167 
	C1663.332886,1785.115112 1651.358887,1783.533936 1638.590088,1781.639404 
z"/>
<path fill="#F7EFF0" opacity="1.000000" stroke="none" 
	d="
M1487.309082,1814.448975 
	C1484.644531,1807.260742 1482.518677,1800.596191 1480.190308,1793.250244 
	C1490.471069,1792.071045 1500.954590,1791.573486 1512.457764,1791.908691 
	C1516.312866,1800.767822 1519.148193,1808.794189 1521.983643,1816.820557 
	C1510.605103,1816.204712 1499.226440,1815.588745 1487.309082,1814.448975 
z"/>
<path fill="#E1E4E9" opacity="1.000000" stroke="none" 
	d="
M1649.630127,1674.097168 
	C1654.204956,1682.998291 1658.479126,1691.195679 1662.825684,1699.354614 
	C1665.539917,1704.449951 1668.363403,1709.487061 1670.128784,1715.226562 
	C1655.913330,1707.971924 1642.806274,1699.725952 1639.774414,1682.681763 
	C1637.227661,1668.364380 1635.568848,1653.888916 1633.516968,1639.483521 
	C1634.330566,1639.247925 1635.144287,1639.012207 1635.957886,1638.776611 
	C1640.425293,1650.310181 1644.892700,1661.843750 1649.630127,1674.097168 
z"/>
<path fill="#F7EFF0" opacity="1.000000" stroke="none" 
	d="
M1466.293945,1761.105957 
	C1466.085327,1760.360229 1465.876709,1759.614502 1465.842773,1757.791992 
	C1473.838989,1755.497070 1481.705688,1754.508057 1489.465332,1752.976685 
	C1494.232910,1752.035767 1496.830078,1753.924194 1499.097412,1757.798096 
	C1502.416870,1763.469849 1506.144043,1768.902954 1509.697266,1774.437866 
	C1508.883667,1775.635376 1508.149414,1777.806396 1507.244141,1777.880005 
	C1498.331665,1778.606445 1489.393555,1779.143066 1480.454834,1779.310059 
	C1478.907593,1779.338867 1477.323364,1777.382935 1475.128906,1775.146240 
	C1472.336060,1770.646362 1470.170532,1767.344116 1468.005005,1764.041748 
	C1468.005005,1764.041748 1468.018311,1763.994629 1467.935791,1763.401367 
	C1467.333618,1762.240723 1466.813843,1761.673340 1466.293945,1761.105957 
z"/>
<path fill="#BB2933" opacity="1.000000" stroke="none" 
	d="
M1683.828857,1831.815674 
	C1687.893555,1831.597046 1692.404541,1831.936523 1697.778564,1832.340820 
	C1695.920776,1822.094482 1690.210205,1814.417603 1686.026367,1805.407715 
	C1692.091431,1805.689575 1698.302856,1806.383667 1704.384766,1807.683838 
	C1706.432007,1808.121216 1708.997437,1809.677002 1709.875488,1811.442871 
	C1714.231812,1820.205322 1718.103760,1829.208618 1723.011353,1840.035278 
	C1708.165527,1839.071899 1696.317139,1835.163940 1683.828857,1831.815674 
z"/>
<path fill="#B62129" opacity="1.000000" stroke="none" 
	d="
M1522.895996,1816.946289 
	C1519.148193,1808.794189 1516.312866,1800.767822 1513.284790,1792.090332 
	C1515.690186,1791.104858 1518.318726,1790.341431 1520.880493,1790.522339 
	C1526.942871,1790.950806 1534.555542,1787.521729 1538.702515,1792.889771 
	C1543.762817,1799.439941 1547.032104,1807.552002 1547.736572,1817.072144 
	C1539.347046,1817.072144 1531.577637,1817.072144 1522.895996,1816.946289 
z"/>
<path fill="#BB2933" opacity="1.000000" stroke="none" 
	d="
M1675.902588,1787.000122 
	C1669.180786,1777.110107 1663.054810,1767.524048 1656.736572,1757.222412 
	C1662.414062,1756.996582 1668.306885,1757.310669 1674.139526,1758.080688 
	C1675.947021,1758.319214 1678.087402,1759.386353 1679.228760,1760.771729 
	C1686.289062,1769.341553 1692.808350,1778.294800 1697.452881,1789.117432 
	C1689.723389,1791.175659 1683.234131,1787.653687 1675.902588,1787.000122 
z"/>
<path fill="#B32D36" opacity="1.000000" stroke="none" 
	d="
M1510.561035,1774.366455 
	C1506.144043,1768.902954 1502.416870,1763.469849 1499.097412,1757.798096 
	C1496.830078,1753.924194 1494.232910,1752.035767 1489.465332,1752.976685 
	C1481.705688,1754.508057 1473.838989,1755.497070 1465.454346,1757.351562 
	C1458.467041,1754.161011 1451.721558,1757.403931 1444.617432,1756.621460 
	C1457.168701,1754.236572 1470.225220,1752.208496 1483.317993,1750.451172 
	C1489.891235,1749.568604 1496.530151,1749.172119 1503.140503,1748.567627 
	C1507.000244,1748.214600 1510.381592,1748.920776 1512.679199,1752.502686 
	C1516.769897,1758.879761 1520.954102,1765.197021 1526.281738,1773.348389 
	C1520.208008,1773.735352 1515.816406,1774.015259 1510.561035,1774.366455 
z"/>
<path fill="#7C1F31" opacity="1.000000" stroke="none" 
	d="
M1250.631348,1822.878784 
	C1249.646973,1824.370239 1248.821289,1826.013062 1247.607056,1827.284912 
	C1247.052734,1827.865723 1245.734009,1827.726685 1244.758545,1827.893799 
	C1232.767578,1829.950684 1220.776001,1832.003906 1207.606812,1834.259766 
	C1213.525757,1829.644287 1236.379517,1822.883545 1249.152832,1822.016602 
	C1250.215210,1822.271973 1250.631226,1822.878784 1250.631348,1822.878784 
z"/>
<path fill="#7C1F31" opacity="1.000000" stroke="none" 
	d="
M1289.658936,1700.636353 
	C1290.837402,1701.902344 1291.300537,1703.112427 1292.208252,1704.844360 
	C1284.123047,1711.132812 1274.784180,1714.559692 1263.972900,1714.286499 
	C1272.296509,1709.717773 1280.620117,1705.149170 1289.658936,1700.636353 
z"/>
<path fill="#7C1F31" opacity="1.000000" stroke="none" 
	d="
M1270.837524,1805.583252 
	C1271.770996,1806.420288 1271.913818,1807.296021 1272.128418,1808.828613 
	C1264.545776,1813.154785 1256.270996,1813.918579 1247.947754,1814.834229 
	C1254.465942,1809.503418 1261.845703,1806.559692 1270.837524,1805.583252 
z"/>
<path fill="#B32D36" opacity="1.000000" stroke="none" 
	d="
M1467.983643,1764.839233 
	C1470.170532,1767.344116 1472.336060,1770.646362 1474.606689,1774.606445 
	C1468.229980,1775.835449 1461.748169,1776.406860 1454.582275,1776.668701 
	C1455.929199,1775.575439 1457.948853,1774.164062 1459.993164,1774.127441 
	C1465.821777,1774.023071 1468.359863,1771.335815 1467.983643,1764.839233 
z"/>
<path fill="#B32D36" opacity="1.000000" stroke="none" 
	d="
M1401.244873,1763.390625 
	C1399.699463,1764.821289 1397.572998,1766.547974 1395.156006,1767.204468 
	C1390.639771,1768.430908 1389.725464,1771.555054 1389.569214,1776.356201 
	C1387.584351,1774.375244 1385.746460,1771.533203 1383.050537,1767.364258 
	C1389.969360,1765.717773 1395.250977,1764.460815 1401.244873,1763.390625 
z"/>
<path fill="#B32D36" opacity="1.000000" stroke="none" 
	d="
M1433.082886,1757.923584 
	C1426.358398,1759.692017 1418.774292,1761.371826 1410.662598,1762.641724 
	C1417.497803,1760.766113 1424.860596,1759.300537 1433.082886,1757.923584 
z"/>
<path fill="#7C1F31" opacity="1.000000" stroke="none" 
	d="
M1765.410400,1454.510132 
	C1764.575439,1453.966064 1764.387207,1453.291382 1763.996826,1451.580078 
	C1766.527466,1449.113403 1769.260376,1447.683228 1773.393799,1445.520142 
	C1772.454590,1451.553101 1769.446533,1453.138916 1765.410400,1454.510132 
z"/>
<path fill="#7C1F31" opacity="1.000000" stroke="none" 
	d="
M1442.241699,1561.028320 
	C1444.580078,1558.862427 1447.542603,1557.347534 1451.252197,1555.907959 
	C1451.999390,1555.983398 1452.130859,1556.102539 1452.130859,1556.102539 
	C1450.204224,1558.729614 1448.277588,1561.356812 1445.794434,1564.191650 
	C1444.447144,1563.492554 1443.656494,1562.585938 1442.241699,1561.028320 
z"/>
<path fill="#B32D36" opacity="1.000000" stroke="none" 
	d="
M1406.831299,1781.349609 
	C1409.959351,1775.335449 1415.534546,1778.640747 1421.122070,1778.982056 
	C1417.035278,1780.082397 1412.333984,1780.793945 1406.831299,1781.349609 
z"/>
<path fill="#B32D36" opacity="1.000000" stroke="none" 
	d="
M1428.806885,1778.906738 
	C1430.931641,1774.304321 1434.943848,1776.223511 1439.233154,1777.067139 
	C1436.364990,1778.026245 1432.947388,1778.595581 1428.806885,1778.906738 
z"/>
<path fill="#B32D36" opacity="1.000000" stroke="none" 
	d="
M1640.896606,1753.557007 
	C1635.524658,1753.602295 1629.555664,1753.193237 1622.903076,1752.439941 
	C1628.246094,1752.431274 1634.272949,1752.766968 1640.896606,1753.557007 
z"/>
<path fill="#B32D36" opacity="1.000000" stroke="none" 
	d="
M1390.219727,1780.633545 
	C1392.396240,1780.328247 1394.676392,1780.647949 1397.455444,1781.447632 
	C1395.230225,1783.762817 1392.609253,1784.423096 1390.219727,1780.633545 
z"/>
<path fill="#7C1F31" opacity="1.000000" stroke="none" 
	d="
M1320.814453,1816.203491 
	C1323.014648,1815.519653 1325.987061,1814.924316 1329.759888,1814.520996 
	C1327.569092,1815.239380 1324.577881,1815.765747 1320.814453,1816.203491 
z"/>
<path fill="#7C1F31" opacity="1.000000" stroke="none" 
	d="
M1759.316895,1451.913330 
	C1758.486206,1452.675903 1757.001221,1453.418579 1754.863647,1454.155518 
	C1755.694946,1453.397583 1757.178833,1452.645508 1759.316895,1451.913330 
z"/>
<path fill="#7C1F31" opacity="1.000000" stroke="none" 
	d="
M1276.527100,1809.098145 
	C1276.931763,1808.530151 1277.843384,1808.174927 1279.255615,1807.833740 
	C1278.848877,1808.335571 1277.941406,1808.823242 1276.527100,1809.098145 
z"/>
<path fill="#7C1F31" opacity="1.000000" stroke="none" 
	d="
M1253.485596,1820.552002 
	C1253.359131,1821.165649 1252.667603,1821.644287 1251.378296,1822.417480 
	C1250.780396,1822.711914 1250.725342,1822.801514 1250.678223,1822.840088 
	C1250.631226,1822.878784 1250.215210,1822.271973 1249.985107,1821.982422 
	C1250.810181,1821.267700 1251.865356,1820.842407 1253.485596,1820.552002 
z"/>
<path fill="#7C1F31" opacity="1.000000" stroke="none" 
	d="
M1760.307861,1457.648926 
	C1760.443115,1457.117432 1760.997070,1456.643066 1762.117188,1456.129028 
	C1762.031128,1456.628296 1761.378784,1457.167236 1760.307861,1457.648926 
z"/>
<path fill="#7C1F31" opacity="1.000000" stroke="none" 
	d="
M1293.564697,1698.530029 
	C1293.309448,1699.098999 1292.513062,1699.697266 1291.206421,1700.355591 
	C1291.471924,1699.796997 1292.247803,1699.178223 1293.564697,1698.530029 
z"/>
<path fill="#B32D36" opacity="1.000000" stroke="none" 
	d="
M1446.864624,1777.157715 
	C1447.388062,1776.676636 1448.454224,1776.409424 1450.090942,1776.223877 
	C1449.576660,1776.661011 1448.492065,1777.016357 1446.864624,1777.157715 
z"/>
<path fill="#7C1F31" opacity="1.000000" stroke="none" 
	d="
M1438.250366,1562.395752 
	C1438.004028,1562.189697 1438.670532,1561.754761 1438.857910,1561.692139 
	C1439.231934,1562.163818 1439.048950,1562.487915 1438.250366,1562.395752 
z"/>
<path fill="#7C1F31" opacity="1.000000" stroke="none" 
	d="
M1311.482666,1792.022583 
	C1311.458862,1792.391846 1310.936157,1792.833984 1309.882080,1793.260010 
	C1309.894897,1792.860962 1310.439209,1792.478271 1311.482666,1792.022583 
z"/>
<path fill="#7C1F31" opacity="1.000000" stroke="none" 
	d="
M1275.625488,1803.432861 
	C1275.639771,1803.826660 1275.313477,1804.000244 1274.679199,1804.161377 
	C1274.475586,1803.669678 1274.780273,1803.357544 1275.625488,1803.432861 
z"/>
<path fill="#7C1F31" opacity="1.000000" stroke="none" 
	d="
M1434.227539,1564.435791 
	C1433.970093,1564.235229 1434.645142,1563.776489 1434.836426,1563.708252 
	C1435.224731,1564.179688 1435.043823,1564.511719 1434.227539,1564.435791 
z"/>
<path fill="#7C1F31" opacity="1.000000" stroke="none" 
	d="
M1325.876953,1787.642090 
	C1326.090210,1787.873413 1325.216064,1788.145508 1324.760376,1788.165039 
	C1324.489990,1787.447388 1324.942993,1787.189453 1325.876953,1787.642090 
z"/>
<path fill="#7C1F31" opacity="1.000000" stroke="none" 
	d="
M1304.555298,1818.168945 
	C1304.571289,1817.889282 1305.085083,1817.637085 1305.806396,1817.656982 
	C1306.013672,1817.929199 1305.053101,1818.196289 1304.555298,1818.168945 
z"/>
<path fill="#7C1F31" opacity="1.000000" stroke="none" 
	d="
M1306.272217,1700.483398 
	C1305.992920,1700.302734 1306.849243,1699.836060 1307.090576,1699.784546 
	C1307.350952,1700.278320 1307.090942,1700.588623 1306.272217,1700.483398 
z"/>
<path fill="#7C1F31" opacity="1.000000" stroke="none" 
	d="
M1274.076172,1822.406494 
	C1274.180420,1822.091675 1274.520386,1822.014282 1275.382568,1821.944336 
	C1275.905029,1821.951782 1275.259888,1822.660522 1275.259888,1822.660522 
	C1275.259888,1822.660522 1274.312012,1822.643677 1274.076172,1822.406494 
z"/>
<path fill="#7C1F31" opacity="1.000000" stroke="none" 
	d="
M1262.181885,1824.272705 
	C1261.999512,1824.019897 1262.843750,1823.824463 1263.275269,1823.824219 
	C1263.706787,1823.823853 1263.225708,1824.556641 1263.225708,1824.556641 
	C1263.225708,1824.556641 1262.364380,1824.525635 1262.181885,1824.272705 
z"/>
<path fill="#BB2933" opacity="1.000000" stroke="none" 
	d="
M1673.781250,1829.932007 
	C1674.038086,1829.491455 1674.548584,1829.418213 1675.737061,1829.727051 
	C1675.621460,1830.172607 1674.828247,1830.235962 1673.781250,1829.932007 
z"/>
<path fill="#B32D36" opacity="1.000000" stroke="none" 
	d="
M1439.322266,1756.656738 
	C1439.382690,1757.207153 1438.844360,1757.523804 1437.710938,1757.676025 
	C1437.612427,1757.114746 1438.148315,1756.751831 1439.322266,1756.656738 
z"/>
<path fill="#7C1F31" opacity="1.000000" stroke="none" 
	d="
M1451.939941,1555.917480 
	C1452.111084,1555.846802 1452.341675,1555.842041 1452.351562,1555.969849 
	C1452.130859,1556.102539 1451.999390,1555.983398 1451.939941,1555.917480 
z"/>
<path fill="#B32D36" opacity="1.000000" stroke="none" 
	d="
M1466.390137,1761.679443 
	C1466.813843,1761.673340 1467.333618,1762.240723 1467.912109,1763.395752 
	C1467.476074,1763.406372 1466.981079,1762.829712 1466.390137,1761.679443 
z"/>
</svg>